<?xml version="1.0" encoding="UTF-8"?>
<svg version="1.1" xmlns="http://www.w3.org/2000/svg" width="700" height="250">
<path d="M0 0 C3.13131286 1.1573455 5.97336898 2.67078771 8.875 4.3125 C9.63296875 4.71662109 10.3909375 5.12074219 11.171875 5.53710938 C16.7124256 8.56863839 16.7124256 8.56863839 19 12 C19.31884766 13.90112305 19.31884766 13.90112305 19.4140625 16.01171875 C19.45273438 16.76904297 19.49140625 17.52636719 19.53125 18.30664062 C19.5621875 19.09232422 19.593125 19.87800781 19.625 20.6875 C19.66367188 21.48478516 19.70234375 22.28207031 19.7421875 23.10351562 C19.83632494 25.06863475 19.91924632 27.0342854 20 29 C23.28574031 30.07521177 23.80787446 30.08683506 27.171875 28.56640625 C28.96901462 27.58235303 30.74385816 26.56606689 32.515625 25.53710938 C36.94559478 23.12297014 40.93253812 22.04361749 46 23 C49.13190336 24.15563887 51.97345867 25.67083846 54.875 27.3125 C55.63296875 27.71662109 56.3909375 28.12074219 57.171875 28.53710938 C62.7124256 31.56863839 62.7124256 31.56863839 65 35 C65.22705078 36.90112305 65.22705078 36.90112305 65.1953125 39.01171875 C65.18564453 40.14770508 65.18564453 40.14770508 65.17578125 41.30664062 C65.15064453 42.48516602 65.15064453 42.48516602 65.125 43.6875 C65.11597656 44.48478516 65.10695312 45.28207031 65.09765625 46.10351562 C65.07411585 48.069139 65.03824547 50.03460775 65 52 C65.763125 52.226875 66.52625 52.45375 67.3125 52.6875 C70.70698509 54.34527179 71.40479606 55.59387365 73 59 C73.28404878 61.63118869 73.41085881 64.0214968 73.38818359 66.6484375 C73.39606903 67.77865326 73.39606903 67.77865326 73.40411377 68.93170166 C73.41727698 71.41301433 73.40858904 73.89368123 73.3984375 76.375 C73.4004593 78.1046562 73.40337162 79.83431156 73.40713501 81.56396484 C73.41155337 85.18530408 73.40514309 88.80642102 73.39111328 92.42773438 C73.37402161 97.06486711 73.38386542 101.7014789 73.40183067 106.33859253 C73.41268174 109.90913809 73.40921611 113.47956056 73.4014473 117.05010986 C73.39944895 118.75970522 73.40189174 120.46931183 73.40888596 122.17889404 C73.41652232 124.57008379 73.40486632 126.96043505 73.38818359 129.3515625 C73.39425629 130.0550885 73.40032898 130.7586145 73.40658569 131.48345947 C73.35062274 135.8228539 72.62024881 138.5283017 70 142 C68.16918945 143.35864258 68.16918945 143.35864258 66.11328125 144.39453125 C65.34886719 144.78801758 64.58445313 145.18150391 63.796875 145.58691406 C62.56710938 146.1935791 62.56710938 146.1935791 61.3125 146.8125 C60.45527344 147.24916992 59.59804687 147.68583984 58.71484375 148.13574219 C56.15010337 149.43808995 53.57675273 150.72161502 51 152 C49.71204127 152.64413488 48.42426133 153.28862745 47.13671875 153.93359375 C45.29960638 154.85252017 43.461467 155.76903883 41.61987305 156.67895508 C36.0927471 159.41927218 30.63170458 162.27958361 25.16870117 165.14526367 C16.08579471 169.89916242 7.0021655 174.6502668 -2.3125 178.9375 C-3.01616699 179.27330078 -3.71983398 179.60910156 -4.44482422 179.95507812 C-8.72257181 181.86567182 -11.50037516 182.3654034 -16 181 C-18.5625 179.73828125 -18.5625 179.73828125 -21 178.3125 C-24.89462287 176.23758931 -24.89462287 176.23758931 -29.25 176.5 C-31.13301836 177.52710092 -33.00770979 178.5695751 -34.875 179.625 C-39.60781461 181.70743843 -43.63898803 181.83957538 -48.46792603 180.12240601 C-51.27066708 178.85128106 -54.00414801 177.48689628 -56.73828125 176.07421875 C-57.74086472 175.57082474 -58.74344818 175.06743073 -59.77641296 174.54878235 C-61.88542156 173.48607301 -63.99058135 172.41569483 -66.09204102 171.33813477 C-69.3114184 169.68805437 -72.54201743 168.06190878 -75.77539062 166.43945312 C-77.82621627 165.4024158 -79.87637067 164.36404974 -81.92578125 163.32421875 C-82.89139481 162.83660568 -83.85700836 162.34899261 -84.85188293 161.84660339 C-85.7467894 161.38635269 -86.64169586 160.92610199 -87.5637207 160.4519043 C-88.35011429 160.0499736 -89.13650787 159.64804291 -89.94673157 159.2339325 C-93.31197274 157.21155667 -94.74777249 155.75668252 -96 152 C-96.10704606 149.05958289 -96.15726965 146.14252218 -96.16113281 143.20166016 C-96.16609772 142.30217148 -96.17106262 141.4026828 -96.17617798 140.47593689 C-96.19079653 137.49697101 -96.19760082 134.51805837 -96.203125 131.5390625 C-96.20887634 129.47024534 -96.21463408 127.40142821 -96.22039795 125.33261108 C-96.23090681 120.99322257 -96.23675035 116.65385258 -96.24023438 112.31445312 C-96.24572133 106.75362939 -96.26975423 101.19305023 -96.29820633 95.63230324 C-96.31682722 91.35836063 -96.322038 87.08447703 -96.32357025 82.81049728 C-96.32659813 80.76037635 -96.3346312 78.71025649 -96.34775543 76.66017532 C-96.36480561 73.7923036 -96.36293823 70.92503072 -96.35644531 68.05712891 C-96.3656601 67.21019974 -96.37487488 66.36327057 -96.3843689 65.49067688 C-96.35142217 60.84634968 -96.05087979 57.74750795 -93 54 C-90.69832818 52.604869 -88.55879813 51.4758688 -86.125 50.375 C-84.682405 49.68999789 -83.24106211 49.00235452 -81.80078125 48.3125 C-81.02814941 47.94511719 -80.25551758 47.57773438 -79.45947266 47.19921875 C-74.10455262 44.58820354 -68.86713106 41.74178541 -63.61474609 38.93164062 C-59.73424484 36.87485305 -55.8988018 34.88907686 -51.80859375 33.28125 C-47.22135795 31.48283989 -47.22135795 31.48283989 -43 29 C-42.02668684 26.53809024 -41.89506393 24.87034789 -42.15234375 22.24609375 C-41.90722818 18.63221033 -40.63755198 17.50073372 -38 15 C-34.33938752 12.89956217 -30.53346919 11.16950736 -26.6875 9.4375 C-24.64861882 8.50113448 -22.61083059 7.56238493 -20.57421875 6.62109375 C-19.60532715 6.17878418 -18.63643555 5.73647461 -17.63818359 5.28076172 C-15.3927853 4.19068589 -13.36225913 3.00959468 -11.26953125 1.66015625 C-7.35193792 -0.32906378 -4.26175909 -0.83226607 0 0 Z " fill="#F1B363" transform="translate(136,35)"/>
<path d="M0 0 C0 24.75 0 49.5 0 75 C-21.44161461 86.28506032 -21.44161461 86.28506032 -29.5625 90.0625 C-41.47422055 95.67578993 -53.23283756 101.5867545 -64.99047852 107.51391602 C-65.71281174 107.87717987 -66.43514496 108.24044373 -67.17936707 108.61471558 C-68.55054655 109.30437678 -69.92087192 109.99573938 -71.29023743 110.68899536 C-75.88750582 113 -75.88750582 113 -77 113 C-77 94.19 -77 75.38 -77 56 C-78.98 55.34 -80.96 54.68 -83 54 C-86.07569538 52.44804362 -89.01201065 50.72035751 -92 49 C-92 54.94 -92 60.88 -92 67 C-98 65 -98 65 -107 60 C-107 47.79 -107 35.58 -107 23 C-102.44893032 24.51702323 -99.0640901 25.95677403 -95.02734375 28.29296875 C-92.28703205 29.24864585 -90.76175444 28.83651314 -88 28 C-85.44073429 26.74436026 -82.98087806 25.36418416 -80.5 23.9609375 C-77.43893371 22.78434014 -76.09447466 22.99429574 -73 24 C-70.44073429 25.25563974 -67.98087806 26.63581584 -65.5 28.0390625 C-62.37965476 29.2384452 -61.16324124 29.04349526 -58 28 C-55.53929681 26.86320048 -53.14943781 25.69043165 -50.75 24.4375 C-45.1112377 21.5501937 -39.4396177 18.77894069 -33.6875 16.125 C-26.43789085 12.76503292 -19.36838235 9.10733973 -12.33081055 5.32470703 C-2.38816897 0 -2.38816897 0 0 0 Z " fill="#866134" transform="translate(201,96)"/>
<path d="M0 0 C3.13131286 1.1573455 5.97336898 2.67078771 8.875 4.3125 C9.63296875 4.71662109 10.3909375 5.12074219 11.171875 5.53710938 C16.7124256 8.56863839 16.7124256 8.56863839 19 12 C19.31884766 13.90112305 19.31884766 13.90112305 19.4140625 16.01171875 C19.45273438 16.76904297 19.49140625 17.52636719 19.53125 18.30664062 C19.5621875 19.09232422 19.593125 19.87800781 19.625 20.6875 C19.66367188 21.48478516 19.70234375 22.28207031 19.7421875 23.10351562 C19.83632494 25.06863475 19.91924632 27.0342854 20 29 C23.28574031 30.07521177 23.80787446 30.08683506 27.171875 28.56640625 C28.96901462 27.58235303 30.74385816 26.56606689 32.515625 25.53710938 C36.94559478 23.12297014 40.93253812 22.04361749 46 23 C49.13190336 24.15563887 51.97345867 25.67083846 54.875 27.3125 C55.63296875 27.71662109 56.3909375 28.12074219 57.171875 28.53710938 C62.7124256 31.56863839 62.7124256 31.56863839 65 35 C65.22705078 36.90112305 65.22705078 36.90112305 65.1953125 39.01171875 C65.18564453 40.14770508 65.18564453 40.14770508 65.17578125 41.30664062 C65.15064453 42.48516602 65.15064453 42.48516602 65.125 43.6875 C65.11597656 44.48478516 65.10695312 45.28207031 65.09765625 46.10351562 C65.07411585 48.069139 65.03824547 50.03460775 65 52 C65.763125 52.226875 66.52625 52.45375 67.3125 52.6875 C70.70698509 54.34527179 71.40479606 55.59387365 73 59 C73.28404878 61.63118869 73.41085881 64.0214968 73.38818359 66.6484375 C73.39606903 67.77865326 73.39606903 67.77865326 73.40411377 68.93170166 C73.41727698 71.41301433 73.40858904 73.89368123 73.3984375 76.375 C73.4004593 78.1046562 73.40337162 79.83431156 73.40713501 81.56396484 C73.41155337 85.18530408 73.40514309 88.80642102 73.39111328 92.42773438 C73.37402161 97.06486711 73.38386542 101.7014789 73.40183067 106.33859253 C73.41268174 109.90913809 73.40921611 113.47956056 73.4014473 117.05010986 C73.39944895 118.75970522 73.40189174 120.46931183 73.40888596 122.17889404 C73.41652232 124.57008379 73.40486632 126.96043505 73.38818359 129.3515625 C73.39425629 130.0550885 73.40032898 130.7586145 73.40658569 131.48345947 C73.35062274 135.8228539 72.62024881 138.5283017 70 142 C68.16918945 143.35864258 68.16918945 143.35864258 66.11328125 144.39453125 C65.34886719 144.78801758 64.58445313 145.18150391 63.796875 145.58691406 C62.56710938 146.1935791 62.56710938 146.1935791 61.3125 146.8125 C60.45527344 147.24916992 59.59804687 147.68583984 58.71484375 148.13574219 C56.15010337 149.43808995 53.57675273 150.72161502 51 152 C49.71204127 152.64413488 48.42426133 153.28862745 47.13671875 153.93359375 C45.29960638 154.85252017 43.461467 155.76903883 41.61987305 156.67895508 C36.0927471 159.41927218 30.63170458 162.27958361 25.16870117 165.14526367 C16.08579471 169.89916242 7.0021655 174.6502668 -2.3125 178.9375 C-3.01616699 179.27330078 -3.71983398 179.60910156 -4.44482422 179.95507812 C-8.72257181 181.86567182 -11.50037516 182.3654034 -16 181 C-18.5625 179.73828125 -18.5625 179.73828125 -21 178.3125 C-24.89462287 176.23758931 -24.89462287 176.23758931 -29.25 176.5 C-31.13301836 177.52710092 -33.00770979 178.5695751 -34.875 179.625 C-39.60781461 181.70743843 -43.63898803 181.83957538 -48.46792603 180.12240601 C-51.27066708 178.85128106 -54.00414801 177.48689628 -56.73828125 176.07421875 C-57.74086472 175.57082474 -58.74344818 175.06743073 -59.77641296 174.54878235 C-61.88542156 173.48607301 -63.99058135 172.41569483 -66.09204102 171.33813477 C-69.3114184 169.68805437 -72.54201743 168.06190878 -75.77539062 166.43945312 C-77.82621627 165.4024158 -79.87637067 164.36404974 -81.92578125 163.32421875 C-82.89139481 162.83660568 -83.85700836 162.34899261 -84.85188293 161.84660339 C-85.7467894 161.38635269 -86.64169586 160.92610199 -87.5637207 160.4519043 C-88.35011429 160.0499736 -89.13650787 159.64804291 -89.94673157 159.2339325 C-93.31197274 157.21155667 -94.74777249 155.75668252 -96 152 C-96.10704606 149.05958289 -96.15726965 146.14252218 -96.16113281 143.20166016 C-96.16609772 142.30217148 -96.17106262 141.4026828 -96.17617798 140.47593689 C-96.19079653 137.49697101 -96.19760082 134.51805837 -96.203125 131.5390625 C-96.20887634 129.47024534 -96.21463408 127.40142821 -96.22039795 125.33261108 C-96.23090681 120.99322257 -96.23675035 116.65385258 -96.24023438 112.31445312 C-96.24572133 106.75362939 -96.26975423 101.19305023 -96.29820633 95.63230324 C-96.31682722 91.35836063 -96.322038 87.08447703 -96.32357025 82.81049728 C-96.32659813 80.76037635 -96.3346312 78.71025649 -96.34775543 76.66017532 C-96.36480561 73.7923036 -96.36293823 70.92503072 -96.35644531 68.05712891 C-96.3656601 67.21019974 -96.37487488 66.36327057 -96.3843689 65.49067688 C-96.35142217 60.84634968 -96.05087979 57.74750795 -93 54 C-90.69832818 52.604869 -88.55879813 51.4758688 -86.125 50.375 C-84.682405 49.68999789 -83.24106211 49.00235452 -81.80078125 48.3125 C-81.02814941 47.94511719 -80.25551758 47.57773438 -79.45947266 47.19921875 C-74.10455262 44.58820354 -68.86713106 41.74178541 -63.61474609 38.93164062 C-59.73424484 36.87485305 -55.8988018 34.88907686 -51.80859375 33.28125 C-47.22135795 31.48283989 -47.22135795 31.48283989 -43 29 C-42.02668684 26.53809024 -41.89506393 24.87034789 -42.15234375 22.24609375 C-41.90722818 18.63221033 -40.63755198 17.50073372 -38 15 C-34.33938752 12.89956217 -30.53346919 11.16950736 -26.6875 9.4375 C-24.64861882 8.50113448 -22.61083059 7.56238493 -20.57421875 6.62109375 C-19.60532715 6.17878418 -18.63643555 5.73647461 -17.63818359 5.28076172 C-15.3927853 4.19068589 -13.36225913 3.00959468 -11.26953125 1.66015625 C-7.35193792 -0.32906378 -4.26175909 -0.83226607 0 0 Z M-21.734375 15.60742188 C-25.9473001 18.19691808 -30.30145284 20.43381761 -35 22 C-35 26.29 -35 30.58 -35 35 C-36.32 35.33 -37.64 35.66 -39 36 C-41.25562492 37.067838 -43.47139604 38.16802123 -45.6875 39.3125 C-50.86987798 41.95380511 -56.07769878 44.52780627 -61.33203125 47.0234375 C-62.43264893 47.54639404 -63.5332666 48.06935059 -64.66723633 48.6081543 C-66.84889666 49.64200974 -69.032268 50.67226415 -71.2175293 51.69848633 C-72.23886963 52.18341553 -73.26020996 52.66834473 -74.3125 53.16796875 C-75.21613281 53.59360107 -76.11976562 54.0192334 -77.05078125 54.45776367 C-78.02402344 54.96670166 -78.99726562 55.47563965 -80 56 C-80.66200661 56.30820427 -81.32401321 56.61640854 -82.00608063 56.93395233 C-86.22658935 59.07466771 -86.22658935 59.07466771 -88.72640991 62.89301777 C-88.98662043 65.23973492 -88.99061717 67.46946466 -88.90820312 69.8293457 C-88.90937134 70.70789719 -88.91053955 71.58644867 -88.91174316 72.49162292 C-88.90618087 75.38796575 -88.84402214 78.28016064 -88.78125 81.17578125 C-88.76632474 83.18643443 -88.75493906 85.19711675 -88.74694824 87.20780945 C-88.71643666 92.49399476 -88.63788163 97.77841487 -88.54931641 103.06390381 C-88.46740405 108.45967732 -88.43092522 113.85573677 -88.390625 119.25195312 C-88.30488684 129.83541001 -88.1683912 140.41755809 -88 151 C-85.3038023 152.4342792 -82.60683841 153.86708482 -79.90942383 155.29907227 C-79.1534919 155.7013932 -78.39755997 156.10371414 -77.61872101 156.51822662 C-71.38290101 159.82636539 -65.07636929 162.9343357 -58.6875 165.9375 C-56.73296895 166.86306173 -54.77853761 167.78883407 -52.82421875 168.71484375 C-51.98979248 169.10792725 -51.15536621 169.50101074 -50.2956543 169.90600586 C-48.80096108 170.61830197 -47.32157664 171.36396968 -45.86254883 172.14672852 C-42.88176828 173.51228468 -41.14903562 172.87473212 -38 172 C-35.44781635 170.68089384 -32.94355959 169.31605151 -30.46484375 167.86328125 C-28 167 -28 167 -25.5 167.68359375 C-22.15825713 169.44323023 -18.8689676 171.28477939 -15.59765625 173.171875 C-9.31287421 175.17544461 -1.59059526 169.42125239 3.9609375 166.6171875 C5.55598618 165.81754074 5.55598618 165.81754074 7.18325806 165.0017395 C10.58240722 163.29658378 13.97874279 161.58590736 17.375 159.875 C19.62090758 158.74702507 21.86699957 157.61941725 24.11328125 156.4921875 C28.4472633 154.31671066 32.78024714 152.13926744 37.11230469 149.95996094 C44.40174171 146.29368646 51.69991281 142.64500751 59 139 C61.00003434 138.00006869 63.00003922 137.00007845 65 136 C65.11576015 126.2731547 65.20464711 116.54647277 65.25906086 106.8190794 C65.28517464 102.30239755 65.32060447 97.78618634 65.37719727 93.26977539 C65.43145462 88.91256386 65.46140711 84.55580546 65.47438622 80.19828224 C65.4836375 78.53441036 65.50170321 76.87056377 65.52865028 75.20688438 C65.56485964 72.87915501 65.56994912 70.55330668 65.56762695 68.2253418 C65.58560333 67.53482224 65.60357971 66.84430267 65.62210083 66.13285828 C65.6544873 63.97942857 65.6544873 63.97942857 65 61 C62.58852069 59.04760438 61.1292334 58 58 58 C58 51.4 58 44.8 58 38 C55.81375 36.824375 53.6275 35.64875 51.375 34.4375 C50.69872559 34.06294678 50.02245117 33.68839355 49.32568359 33.30249023 C46.423975 31.79926158 44.27054853 30.99613502 40.9921875 31.04296875 C37.99546508 32.00145046 35.38778991 33.30028584 32.64477539 34.83178711 C24.51354948 39.30862364 24.51354948 39.30862364 19.80078125 38.34765625 C17.0625 36.9375 17.0625 36.9375 13 34 C12.67 27.73 12.34 21.46 12 15 C-1.972052 5.42655696 -7.75905463 6.80250107 -21.734375 15.60742188 Z " fill="#FEFEFE" transform="translate(136,35)"/>
<path d="M0 0 C22.77 0 45.54 0 69 0 C74.92915811 14.22997947 74.92915811 14.22997947 77.3125 20.5625 C77.57611328 21.24634766 77.83972656 21.93019531 78.11132812 22.63476562 C79.21779082 25.56904722 80 27.83628037 80 31 C80.66 31 81.32 31 82 31 C82.16798096 30.40719238 82.33596191 29.81438477 82.5090332 29.20361328 C84.42120314 22.62656811 86.70884953 16.25763701 89.1875 9.875 C89.73954102 8.44027344 89.73954102 8.44027344 90.30273438 6.9765625 C91.19855445 4.64975711 92.09767773 2.32428979 93 0 C96.03216058 1.51608029 96.22560694 3.76279845 97.3828125 6.8984375 C97.82753906 8.09984375 98.27226562 9.30125 98.73046875 10.5390625 C98.95911621 11.16844727 99.18776367 11.79783203 99.42333984 12.44628906 C100.12081594 14.36349892 100.8309522 16.27564934 101.54296875 18.1875 C105 27.60110696 105 27.60110696 105 31 C105.66 31 106.32 31 107 31 C107.16798096 30.40719238 107.33596191 29.81438477 107.5090332 29.20361328 C109.42120314 22.62656811 111.70884953 16.25763701 114.1875 9.875 C114.73954102 8.44027344 114.73954102 8.44027344 115.30273438 6.9765625 C116.19854655 4.64977762 117.09880246 2.32470435 118 0 C123.94 0 129.88 0 136 0 C131.43658483 14.05263437 126.61952193 27.99358473 121.5625 41.875 C121.29393188 42.61321991 121.02536377 43.35143982 120.74865723 44.11203003 C116.20229783 56.59540435 116.20229783 56.59540435 115 59 C109.72 59 104.44 59 99 59 C97.35 54.71 95.7 50.42 94 46 C92.1727089 48.74093665 91.06301822 51.13825324 89.875 54.1875 C89.25625 55.775625 88.6375 57.36375 88 59 C82.72 59 77.44 59 72 59 C62.595 32.765 62.595 32.765 53 6 C51.35 9.63 49.7 13.26 48 17 C43.05 17 38.1 17 33 17 C33 30.86 33 44.72 33 59 C27.39 59 21.78 59 16 59 C16 45.14 16 31.28 16 17 C8.74 17 1.48 17 -6 17 C-4.39522868 10.73375008 -2.92022236 5.84044472 0 0 Z " fill="#FFFFFF" transform="translate(354,133)"/>
<path d="M0 0 C1.98 0.66 3.96 1.32 6 2 C6.83144531 2.2165625 7.66289063 2.433125 8.51953125 2.65625 C11.46546533 3.74027344 13.01319884 4.52645468 15 7 C14.91953164 9.02821538 14.82361917 11.05873412 14.60205078 13.07641602 C14.18441567 17.41937215 14.01221322 21.01769104 16 25 C22.65798822 30.79158472 31.45253919 34.0637563 39.51367188 37.48974609 C43.47370252 39.20520475 47.3105542 41.09928025 51.14746094 43.0715332 C54.41454492 44.7480962 57.70992249 46.3690214 61 48 C61 42.06 61 36.12 61 30 C66.12300798 32.04920319 71.06486519 34.5324326 76 37 C76 55.81 76 74.62 76 94 C71.38 91.69 66.76 89.38 62 87 C57.4473111 88.51756297 54.13435463 89.92912008 50.125 92.29296875 C45.37932133 93.87195375 41.43636081 91.83787339 37.1640625 89.77734375 C35.31361657 88.83875293 33.46743734 87.89171565 31.625 86.9375 C29.66148901 85.93743976 27.69794709 84.93744025 25.734375 83.9375 C24.76693359 83.44121094 23.79949219 82.94492188 22.80273438 82.43359375 C18.8406482 80.40699357 14.85881992 78.42092773 10.875 76.4375 C9.62227043 75.81144879 8.36965627 75.18516655 7.1171875 74.55859375 C6.08851562 74.04425781 5.05984375 73.52992188 4 73 C2.68 72.34 1.36 71.68 0 71 C0 47.57 0 24.14 0 0 Z " fill="#EFCA74" transform="translate(48,115)"/>
<path d="M0 0 C18 0 18 0 22.171875 3.4375 C23.5546875 5.65234375 23.5546875 5.65234375 24.75 8 C25.63948301 9.50067747 26.53010559 11.00068008 27.421875 12.5 C27.77862305 13.1703125 28.13537109 13.840625 28.50292969 14.53125 C30.7284768 18.20129769 33.42472689 21.56630252 36 25 C36.33 16.75 36.66 8.5 37 0 C42.94 0 48.88 0 55 0 C55 19.47 55 38.94 55 59 C37 59 37 59 32.609375 55.34375 C31.08984375 52.9921875 31.08984375 52.9921875 29.75 50.5 C28.76606721 48.90597696 27.78169488 47.31222514 26.796875 45.71875 C26.39823242 45.00654297 25.99958984 44.29433594 25.58886719 43.56054688 C23.30329821 39.87722673 20.60089258 36.46785678 18 33 C17.67 41.58 17.34 50.16 17 59 C11.39 59 5.78 59 0 59 C0 39.53 0 20.06 0 0 Z " fill="#FFFFFF" transform="translate(240,133)"/>
<path d="M0 0 C8.17468367 7.44928512 11.44646513 14.70381969 12.06640625 25.7109375 C11.87919411 34.98344442 7.97634537 41.8505015 1.875 48.625 C-4.4265813 54.62080836 -10.9832436 56.23377683 -19.5625 56.5 C-30.09127569 56.17163778 -36.76044634 52.53504565 -44 45 C-50.46230935 36.66702215 -50.85983895 28.24376032 -50 18 C-47.93389618 9.4563815 -43.60500201 3.47539179 -36.1875 -1.25 C-24.6252547 -7.72825803 -11.0921752 -7.98788044 0 0 Z M-31 19 C-32.20643566 22.61930698 -32.32268559 25.19231005 -32 29 C-29.74665796 33.33976986 -27.54633071 36.09688482 -23 38 C-18.70208284 38.54700764 -16.58504209 38.31502266 -12.75 36.25 C-8.44784682 32.90561422 -8.44784682 32.90561422 -6.68359375 27.95703125 C-6.40012768 22.49802333 -7.28815693 19.22737683 -11 15 C-18.52481707 10.45997467 -25.60633996 12.40239799 -31 19 Z " fill="#FFFFFF" transform="translate(552,63)"/>
<path d="M0 0 C8.17468367 7.44928512 11.44646513 14.70381969 12.06640625 25.7109375 C11.87919411 34.98344442 7.97634537 41.8505015 1.875 48.625 C-4.4265813 54.62080836 -10.9832436 56.23377683 -19.5625 56.5 C-30.09127569 56.17163778 -36.76044634 52.53504565 -44 45 C-50.46230935 36.66702215 -50.85983895 28.24376032 -50 18 C-47.93389618 9.4563815 -43.60500201 3.47539179 -36.1875 -1.25 C-24.6252547 -7.72825803 -11.0921752 -7.98788044 0 0 Z M-31 19 C-32.20643566 22.61930698 -32.32268559 25.19231005 -32 29 C-29.74665796 33.33976986 -27.54633071 36.09688482 -23 38 C-18.70208284 38.54700764 -16.58504209 38.31502266 -12.75 36.25 C-8.44784682 32.90561422 -8.44784682 32.90561422 -6.68359375 27.95703125 C-6.40012768 22.49802333 -7.28815693 19.22737683 -11 15 C-18.52481707 10.45997467 -25.60633996 12.40239799 -31 19 Z " fill="#FFFFFF" transform="translate(336,63)"/>
<path d="M0 0 C9.89759175 0.65983945 17.14720332 4.32767211 23.9375 11.5 C30.25278717 18.95034835 31.34408447 25.01820548 31.09375 34.78125 C30.23199742 43.47711689 26.41730215 50.5972873 19.75 56.25 C11.19569833 62.27923672 3.05127522 63.56312959 -7.25 62.25 C-15.78404252 60.2018298 -22.1765826 55.61865661 -27.0625 48.375 C-31.48991043 40.68528714 -32.56513007 32.14311447 -30.6328125 23.484375 C-27.76202636 14.38931802 -22.60842927 7.72168712 -14.125 3.25 C-9.35736113 1.13185815 -5.17687018 0.39822078 0 0 Z M-10.25 23.25 C-12.46666876 26.57500313 -13.02137913 28.28723828 -13.25 32.25 C-11.73589479 36.87200539 -10.04569439 40.1659983 -6.25 43.25 C-2.63069302 44.45643566 -0.05768995 44.57268559 3.75 44.25 C8.62070677 41.81464662 10.90569877 39.37305898 12.75 34.25 C13.33197698 30.25930069 12.95642575 28.62598975 11 25.0625 C7.67809572 20.70594705 7.67809572 20.70594705 2.70703125 18.93359375 C-2.77246584 18.64906375 -5.96429948 19.59147516 -10.25 23.25 Z " fill="#FFFFFF" transform="translate(517.25,130.75)"/>
<path d="M0 0 C5.40768471 -0.07455448 10.81506548 -0.12879227 16.22314453 -0.16479492 C18.06011166 -0.17981496 19.89704334 -0.20023709 21.73388672 -0.22631836 C24.38518054 -0.26300202 27.03599732 -0.27979438 29.6875 -0.29296875 C30.49928711 -0.30845261 31.31107422 -0.32393646 32.14746094 -0.33988953 C38.38040974 -0.34169975 44.11376694 0.59024185 49.05859375 4.71875 C49.74115234 5.60046875 49.74115234 5.60046875 50.4375 6.5 C50.91058594 7.0878125 51.38367188 7.675625 51.87109375 8.28125 C55.61620574 13.98315061 54.45101874 22.45378518 54 29 C52.78105632 33.99326325 50.55533593 36.82499161 46.34765625 39.70703125 C45.40611694 40.35828979 45.40611694 40.35828979 44.44555664 41.02270508 C43.96852295 41.3452124 43.49148926 41.66771973 43 42 C43.45439453 42.4439209 43.90878906 42.8878418 44.37695312 43.34521484 C46.42313518 45.34994859 48.4616229 47.36233216 50.5 49.375 C51.21542969 50.07367188 51.93085937 50.77234375 52.66796875 51.4921875 C53.68310547 52.49765625 53.68310547 52.49765625 54.71875 53.5234375 C55.66137695 54.450354 55.66137695 54.450354 56.62304688 55.39599609 C58 57 58 57 58 59 C39.92789536 61.23385157 39.92789536 61.23385157 33.58398438 57.62597656 C29.06018999 53.97874396 25.46738703 49.63896149 22 45 C21.67 49.62 21.34 54.24 21 59 C15.39 59 9.78 59 4 59 C4 47.78 4 36.56 4 25 C19.345 24.505 19.345 24.505 35 24 C35.33 22.35 35.66 20.7 36 19 C32.67301363 17.33650681 28.93570615 17.75621943 25.2734375 17.68359375 C24.41062164 17.66281265 23.54780579 17.64203156 22.65884399 17.62062073 C19.89764507 17.55513966 17.13634962 17.49624702 14.375 17.4375 C12.50519828 17.3943134 10.63540638 17.35069907 8.765625 17.30664062 C4.17718272 17.19945976 -0.41135683 17.09818825 -5 17 C-4.40898836 12.80692791 -3.43397572 9.08341965 -1.9375 5.125 C-1.57527344 4.15820312 -1.21304688 3.19140625 -0.83984375 2.1953125 C-0.56269531 1.47085938 -0.28554688 0.74640625 0 0 Z " fill="#FFFFFF" transform="translate(554,133)"/>
<path d="M0 0 C15.84 0 31.68 0 48 0 C46 9 46 9 43 17 C34.42 17 25.84 17 17 17 C17 18.32 17 19.64 17 21 C22.94 21 28.88 21 35 21 C33.7915371 26.94935584 32.25422333 32.36444167 30 38 C25.71 38 21.42 38 17 38 C17 39.32 17 40.64 17 42 C27.23 42 37.46 42 48 42 C47 48 47 48 43 59 C28.81 59 14.62 59 0 59 C0 39.53 0 20.06 0 0 Z " fill="#FFFFFF" transform="translate(410,59)"/>
<path d="M0 0 C15.84 0 31.68 0 48 0 C45 11 45 11 42 17 C33.75 17 25.5 17 17 17 C17 18.32 17 19.64 17 21 C22.94 21 28.88 21 35 21 C33.81926331 26.90368345 31.94136566 32.30115241 30 38 C25.71 38 21.42 38 17 38 C17 39.32 17 40.64 17 42 C27.23 42 37.46 42 48 42 C45 52 45 52 42 59 C28.14 59 14.28 59 0 59 C0 39.53 0 20.06 0 0 Z " fill="#FFFFFF" transform="translate(301,133)"/>
<path d="M0 0 C5.61 0 11.22 0 17 0 C17.33 7.59 17.66 15.18 18 23 C22.47248146 16.92738706 22.47248146 16.92738706 26.94458008 10.85449219 C27.50556396 10.09297852 28.06654785 9.33146484 28.64453125 8.546875 C29.50075073 7.38430176 29.50075073 7.38430176 30.37426758 6.19824219 C31.17900513 5.1101123 31.17900513 5.1101123 32 4 C32.46792969 3.25427734 32.93585937 2.50855469 33.41796875 1.74023438 C35 0 35 0 37.17651367 -0.45410156 C37.99869385 -0.4331543 38.82087402 -0.41220703 39.66796875 -0.390625 C40.56064453 -0.37773437 41.45332031 -0.36484375 42.37304688 -0.3515625 C43.30181641 -0.31804687 44.23058594 -0.28453125 45.1875 -0.25 C46.59805664 -0.22292969 46.59805664 -0.22292969 48.03710938 -0.1953125 C50.35909889 -0.1481655 52.6790369 -0.08238231 55 0 C51.89722362 5.71764689 48.29446872 10.89271172 44.4375 16.125 C39.43826685 22.87537578 39.43826685 22.87537578 35 30 C35.35715088 30.49290527 35.71430176 30.98581055 36.08227539 31.49365234 C55 57.61333978 55 57.61333978 55 59 C48.33581679 60.08611437 41.54843863 61.0926612 35 59 C29.49749 54.87932334 25.82791275 48.92443343 22.30834961 43.10644531 C20.99397881 40.99030587 19.49466452 38.99288603 18 37 C17.67 44.26 17.34 51.52 17 59 C11.39 59 5.78 59 0 59 C0 39.53 0 20.06 0 0 Z " fill="#FFFFFF" transform="translate(615,133)"/>
<path d="M0 0 C0 5.94 0 11.88 0 18 C4.51958019 15.70068536 4.51958019 15.70068536 9.03466797 13.39257812 C13.77777778 11 13.77777778 11 16 11 C16 17.27 16 23.54 16 30 C14.2778125 30.825 12.555625 31.65 10.78125 32.5 C8.35380614 33.66592416 5.92664203 34.83240967 3.5 36 C2.86461304 36.30568909 2.22922607 36.61137817 1.57458496 36.92633057 C-10.68206229 42.82959303 -22.85595868 48.89220374 -35.00195312 55.01953125 C-35.66451111 55.35292511 -36.32706909 55.68631897 -37.00970459 56.02981567 C-38.81034862 56.93605764 -40.60980403 57.8446602 -42.40917969 58.75341797 C-45 60 -45 60 -46 60 C-46 47.46 -46 34.92 -46 22 C-35.16245038 16.58122519 -24.31306098 11.242541 -13.36914062 6.05078125 C-12.32306641 5.55191406 -11.27699219 5.05304688 -10.19921875 4.5390625 C-9.26940186 4.09771973 -8.33958496 3.65637695 -7.3815918 3.20166016 C-1.03616416 0 -1.03616416 0 0 0 Z " fill="#907A46" transform="translate(170,149)"/>
<path d="M0 0 C0.74900574 0.00141495 1.49801147 0.0028299 2.26971436 0.00428772 C4.65380912 0.00986966 7.03780878 0.0224188 9.421875 0.03515625 C11.04166531 0.04017359 12.66145709 0.04473609 14.28125 0.04882812 C18.24482812 0.05983317 22.20833545 0.07708534 26.171875 0.09765625 C25.58086336 4.29072834 24.60585072 8.0142366 23.109375 11.97265625 C22.74714844 12.93945312 22.38492188 13.90625 22.01171875 14.90234375 C21.73457031 15.62679687 21.45742188 16.35125 21.171875 17.09765625 C20.1363147 17.11953003 20.1363147 17.11953003 19.07983398 17.1418457 C15.9224784 17.21676242 12.76612999 17.31327842 9.609375 17.41015625 C8.52333984 17.43271484 7.43730469 17.45527344 6.31835938 17.47851562 C-0.61007021 17.71016525 -6.26836685 18.11205264 -11.765625 22.72265625 C-13.44947077 26.4865468 -13.47833576 30.05190042 -12.828125 34.09765625 C-10.45977401 38.22034131 -8.2711248 39.66538624 -3.828125 41.09765625 C-0.5414193 41.46121694 -0.5414193 41.46121694 3.00390625 41.51171875 C4.29619141 41.55039063 5.58847656 41.5890625 6.91992188 41.62890625 C8.27473495 41.66035639 9.62955275 41.69160386 10.984375 41.72265625 C12.35874772 41.76087375 13.73309744 41.79992765 15.10742188 41.83984375 C18.46210489 41.93401029 21.81678393 42.01963825 25.171875 42.09765625 C23.67017038 48.08317397 22.22961337 53.71021246 19.171875 59.09765625 C14.71376748 59.21499862 10.25606372 59.28528997 5.796875 59.34765625 C4.54519531 59.38117188 3.29351562 59.4146875 2.00390625 59.44921875 C-6.97583183 59.54324742 -14.02190294 58.55348963 -21.4140625 53.23828125 C-28.98391611 45.23869796 -32.21744193 37.9905379 -32.02734375 26.96484375 C-31.36696902 17.46062702 -26.82962923 11.3967442 -19.828125 5.09765625 C-13.40185213 0.81347434 -7.55013917 -0.05389351 0 0 Z " fill="#FFFFFF" transform="translate(380.828125,58.90234375)"/>
<path d="M0 0 C4.82604826 1.60868275 8.9157183 3.44115769 13.3125 5.875 C14.63968024 6.59029738 15.96780274 7.30384929 17.296875 8.015625 C18.25110352 8.52706055 18.25110352 8.52706055 19.22460938 9.04882812 C19.81048828 9.36271484 20.39636719 9.67660156 21 10 C21.91265625 10.48984375 22.8253125 10.9796875 23.765625 11.484375 C27.27089535 13.22508749 29.13479071 14.14125866 33.0625 13.5 C34.5165625 12.7575 34.5165625 12.7575 36 12 C37.41613288 11.2906001 38.83282484 10.58231543 40.25 9.875 C40.91515625 9.52179688 41.5803125 9.16859375 42.265625 8.8046875 C44 8 44 8 46 8 C46 20.21 46 32.42 46 45 C33 52 33 52 27 51 C24.55322266 50.00366211 24.55322266 50.00366211 22.1640625 48.77734375 C21.27187012 48.32480225 20.37967773 47.87226074 19.46044922 47.40600586 C18.52475098 46.92139893 17.58905273 46.43679199 16.625 45.9375 C14.66148901 44.93743976 12.69794709 43.93744025 10.734375 42.9375 C9.76693359 42.44121094 8.79949219 41.94492188 7.80273438 41.43359375 C3.8406482 39.40699357 -0.14118008 37.42092773 -4.125 35.4375 C-5.37772957 34.81144879 -6.63034373 34.18516655 -7.8828125 33.55859375 C-8.91148438 33.04425781 -9.94015625 32.52992188 -11 32 C-12.32 31.34 -13.64 30.68 -15 30 C-15 23.73 -15 17.46 -15 11 C-9.33423682 12.88858773 -5.12263557 15.05060376 0 18 C0 12.06 0 6.12 0 0 Z " fill="#C0A25D" transform="translate(63,156)"/>
<path d="M0 0 C17.82 0 35.64 0 54 0 C52.96766217 6.19402696 51.21101681 11.15150392 49 17 C44.05 17 39.1 17 34 17 C34 30.86 34 44.72 34 59 C28.06 59 22.12 59 16 59 C16 45.14 16 31.28 16 17 C9.07 17 2.14 17 -5 17 C-3 8 -3 8 0 0 Z " fill="#FFFFFF" transform="translate(569,59)"/>
<path d="M0 0 C0.24799934 5.15914926 0.42898392 10.31480788 0.54931641 15.47851562 C0.59948251 17.23271109 0.6676401 18.98649084 0.75439453 20.73925781 C1.45557636 35.27434467 1.45557636 35.27434467 -2.09472656 39.48339844 C-6.35247547 42.12652048 -10.07067951 43.0141359 -15 44 C-15.33 38.39 -15.66 32.78 -16 27 C-18.041875 28.03125 -20.08375 29.0625 -22.1875 30.125 C-29.90526271 33.99753507 -37.66982456 37.77392864 -45.4425354 41.53460693 C-46.77551758 42.17965685 -48.10817841 42.82537125 -49.44052124 43.47174072 C-51.33305591 44.38947377 -53.22686505 45.30451958 -55.12109375 46.21875 C-56.78289673 47.0221582 -56.78289673 47.0221582 -58.47827148 47.84179688 C-61 49 -61 49 -62 49 C-62 42.73 -62 36.46 -62 30 C-59.525 28.845 -57.05 27.69 -54.5 26.5 C-40.74421811 20.03819042 -27.24255069 13.13374614 -13.80419922 6.03613281 C-12.86463379 5.54209961 -11.92506836 5.04806641 -10.95703125 4.5390625 C-10.12147705 4.09771973 -9.28592285 3.65637695 -8.42504883 3.20166016 C-1.96383584 0 -1.96383584 0 0 0 Z " fill="#968146" transform="translate(201,96)"/>
<path d="M0 0 C5.61 0 11.22 0 17 0 C17 13.86 17 27.72 17 42 C24.59 42 32.18 42 40 42 C39.195625 44.43375 38.39125 46.8675 37.5625 49.375 C37.31056885 50.13989746 37.0586377 50.90479492 36.79907227 51.69287109 C35.11111111 56.77777778 35.11111111 56.77777778 34 59 C22.78 59 11.56 59 0 59 C0 39.53 0 20.06 0 0 Z " fill="#FFFFFF" transform="translate(462,59)"/>
<path d="M0 0 C0 6.27 0 12.54 0 19 C-3.70626018 20.7960645 -7.4148607 22.58698106 -11.125 24.375 C-12.17171875 24.88289063 -13.2184375 25.39078125 -14.296875 25.9140625 C-15.31523437 26.40390625 -16.33359375 26.89375 -17.3828125 27.3984375 C-18.78104248 28.07398682 -18.78104248 28.07398682 -20.20751953 28.76318359 C-23.09187098 30.04069054 -25.99364128 31.04960273 -29 32 C-29 32.66 -29 33.32 -29 34 C-27.02 34.66 -25.04 35.32 -23 36 C-25.73443397 39.23708727 -29.30409846 40.95340735 -33 42.875 C-33.66628418 43.22361084 -34.33256836 43.57222168 -35.01904297 43.93139648 C-37.00787948 44.96397903 -39.00261735 45.98406363 -41 47 C-42.61261719 47.82564453 -42.61261719 47.82564453 -44.2578125 48.66796875 C-45.20398438 49.12816406 -46.15015625 49.58835938 -47.125 50.0625 C-47.95257813 50.46597656 -48.78015625 50.86945313 -49.6328125 51.28515625 C-53.65028645 52.49835383 -56.20687309 51.38639516 -59.89453125 49.58984375 C-60.85746094 49.04457031 -61.82039063 48.49929687 -62.8125 47.9375 C-63.78832031 47.38964844 -64.76414062 46.84179688 -65.76953125 46.27734375 C-66.50558594 45.85582031 -67.24164063 45.43429688 -68 45 C-64.22547063 41.89273572 -59.99694004 39.75714837 -55.6875 37.5 C-54.58631836 36.91412109 -54.58631836 36.91412109 -53.46289062 36.31640625 C-49.05007379 33.99057378 -44.61195941 31.900834 -40 30 C-41.96382007 28.49440461 -43.78263366 27.10868317 -46 26 C-45.67 19.73 -45.34 13.46 -45 7 C-41.80989583 8.59505208 -38.61979167 10.19010417 -35.4296875 11.78515625 C-30.73398359 13.44844089 -27.68471599 12.71763364 -23.14746094 10.78491211 C-22.18614258 10.28741455 -21.22482422 9.78991699 -20.234375 9.27734375 C-19.17992187 8.73916016 -18.12546875 8.20097656 -17.0390625 7.64648438 C-15.95367187 7.08251953 -14.86828125 6.51855469 -13.75 5.9375 C-11.57990874 4.81814965 -9.40811858 3.70208478 -7.234375 2.58984375 C-6.27756836 2.09347412 -5.32076172 1.59710449 -4.33496094 1.08569336 C-2 0 -2 0 0 0 Z " fill="#C18F4F" transform="translate(147,51)"/>
<path d="M0 0 C0 6.27 0 12.54 0 19 C-7.125 22.5625 -7.125 22.5625 -9.49194336 23.73828125 C-13.01970949 25.49179724 -16.52889353 27.26887918 -20.00390625 29.125 C-20.62571777 29.45169678 -21.2475293 29.77839355 -21.88818359 30.11499023 C-23.60081308 31.01685116 -25.30647196 31.93191268 -27.01171875 32.84765625 C-30.38940591 34.15016306 -31.60045438 34.02254049 -35 33 C-40.19542864 31.66997027 -42.49369767 32.34677309 -47.125 35 C-52.44775228 38.03383336 -52.44775228 38.03383336 -54.9765625 37.87890625 C-57.7877952 36.65781097 -60.52021768 35.33206271 -63.25 33.9375 C-64.32765625 33.38964844 -65.4053125 32.84179688 -66.515625 32.27734375 C-67.33546875 31.85582031 -68.1553125 31.43429688 -69 31 C-66.94551647 28.77946971 -65.05181884 27.33786247 -62.34765625 25.9921875 C-61.65349609 25.64542969 -60.95933594 25.29867187 -60.24414062 24.94140625 C-59.52419922 24.58949219 -58.80425781 24.23757812 -58.0625 23.875 C-57.34642578 23.51535156 -56.63035156 23.15570313 -55.89257812 22.78515625 C-52.52459982 21.11833474 -49.68951112 19.92237778 -46 19 C-46 15.37 -46 11.74 -46 8 C-45.11957031 8.44472656 -44.23914063 8.88945313 -43.33203125 9.34765625 C-42.17058594 9.91355469 -41.00914062 10.47945312 -39.8125 11.0625 C-38.66394531 11.63097656 -37.51539063 12.19945313 -36.33203125 12.78515625 C-31.74563331 14.45733651 -29.38865947 13.59889576 -24.96972656 11.69311523 C-23.32182129 10.8840271 -23.32182129 10.8840271 -21.640625 10.05859375 C-21.0507782 9.77146011 -20.4609314 9.48432648 -19.85321045 9.18849182 C-17.98276982 8.27690697 -16.11625316 7.35762301 -14.25 6.4375 C-12.3688395 5.51516014 -10.48690064 4.59446162 -8.60394287 3.67579651 C-6.90527387 2.84626862 -5.20892676 2.01199114 -3.51269531 1.17749023 C-1 0 -1 0 0 0 Z " fill="#948866" transform="translate(194,73)"/>
<path d="M0 0 C4.55106968 1.51702323 7.9359099 2.95677403 11.97265625 5.29296875 C14.71296795 6.24864585 16.23824556 5.83651314 19 5 C21.55926571 3.74436026 24.01912194 2.36418416 26.5 0.9609375 C29.58356574 -0.22430808 30.88168229 -0.02670491 34 1 C35.96876871 1.95914373 37.90684171 2.9833923 39.8125 4.0625 C40.78832031 4.61035156 41.76414063 5.15820312 42.76953125 5.72265625 C43.87361328 6.35494141 43.87361328 6.35494141 45 7 C41.0826156 10.42771135 35.47848189 15 30 15 C30 20.94 30 26.88 30 33 C24.33423682 31.11141227 20.12263557 28.94939624 15 26 C15 31.94 15 37.88 15 44 C9 42 9 42 0 37 C0 24.79 0 12.58 0 0 Z " fill="#B18147" transform="translate(94,119)"/>
<path d="M0 0 C0 2.31 0 4.62 0 7 C0.94875 7.28875 1.8975 7.5775 2.875 7.875 C6 9 6 9 8 11 C6.99582031 11.49628906 5.99164063 11.99257812 4.95703125 12.50390625 C-3.78947256 16.84279075 -12.42843658 21.32460177 -21 26 C-14.565 29.465 -14.565 29.465 -8 33 C-10.80335419 35.10251564 -13.43924468 36.98326376 -16.4375 38.75 C-17.17871094 39.19859375 -17.91992188 39.6471875 -18.68359375 40.109375 C-21.62312107 41.23958112 -22.97682837 40.80383147 -26 40 C-27.66363586 39.24837147 -29.29921543 38.43247184 -30.90625 37.56640625 C-31.81503906 37.08236328 -32.72382812 36.59832031 -33.66015625 36.09960938 C-34.59730469 35.59236328 -35.53445312 35.08511719 -36.5 34.5625 C-38.36339975 33.56159546 -40.22794732 32.56282428 -42.09375 31.56640625 C-42.91552734 31.12240479 -43.73730469 30.67840332 -44.58398438 30.22094727 C-47.01098075 28.99445081 -49.46153652 27.97170257 -52 27 C-52 26.34 -52 25.68 -52 25 C-39.98516833 18.57870033 -27.88872583 12.40526953 -15.55444336 6.61791992 C-11.94736359 4.91996627 -8.4366193 3.26656758 -5.03125 1.1875 C-3 0 -3 0 0 0 Z " fill="#F0CB74" transform="translate(101,70)"/>
<path d="M0 0 C7.31761946 2.87147093 14.25077728 6.06520938 21.1875 9.75 C21.94216553 10.15081787 22.69683105 10.55163574 23.47436523 10.96459961 C28.85487411 13.85487411 28.85487411 13.85487411 30 15 C30.08858646 17.73894085 30.11523479 20.4525327 30.09765625 23.19140625 C30.0962413 24.01124496 30.09482635 24.83108368 30.09336853 25.67576599 C30.08775289 28.30471382 30.07519779 30.93357773 30.0625 33.5625 C30.05748701 35.34049357 30.05292376 37.11848846 30.04882812 38.89648438 C30.03777839 43.26435545 30.02050331 47.63216348 30 52 C27.68628057 50.85657478 25.37400323 49.71038936 23.0625 48.5625 C22.40314453 48.23701172 21.74378906 47.91152344 21.06445312 47.57617188 C16.11328125 45.11328125 16.11328125 45.11328125 15 44 C14.84417697 42.65984779 14.74955858 41.31241097 14.68359375 39.96484375 C14.64169922 39.15595703 14.59980469 38.34707031 14.55664062 37.51367188 C14.51732422 36.66353516 14.47800781 35.81339844 14.4375 34.9375 C14.39431641 34.08349609 14.35113281 33.22949219 14.30664062 32.34960938 C14.20023298 30.23327963 14.09958269 28.11666187 14 26 C9.38 23.69 4.76 21.38 0 19 C0 12.73 0 6.46 0 0 Z " fill="#916C3C" transform="translate(48,96)"/>
<path d="M0 0 C2.9921875 1.41015625 2.9921875 1.41015625 5.875 3.0625 C6.84179688 3.61035156 7.80859375 4.15820312 8.8046875 4.72265625 C9.52914062 5.14417969 10.25359375 5.56570312 11 6 C6.2963482 9.75110909 0.96919329 12.05389137 -4.4375 14.625 C-5.47455078 15.12773438 -6.51160156 15.63046875 -7.58007812 16.1484375 C-8.58361328 16.62796875 -9.58714844 17.1075 -10.62109375 17.6015625 C-11.5330249 18.03807129 -12.44495605 18.47458008 -13.38452148 18.92431641 C-17.50986426 20.62097096 -19.88394839 21.43549818 -24.11328125 19.78515625 C-25.16902344 19.21667969 -26.22476563 18.64820312 -27.3125 18.0625 C-28.91544922 17.21365234 -28.91544922 17.21365234 -30.55078125 16.34765625 C-31.35902344 15.90292969 -32.16726562 15.45820312 -33 15 C-33.33 18.3 -33.66 21.6 -34 25 C-39.10880829 28.52331606 -39.10880829 28.52331606 -43 29 C-48.10867693 27.30957802 -52.60286267 24.0273321 -57 21 C-52.2963482 17.24889091 -46.96919329 14.94610863 -41.5625 12.375 C-40.00692383 11.62089844 -40.00692383 11.62089844 -38.41992188 10.8515625 C-37.41638672 10.37203125 -36.41285156 9.8925 -35.37890625 9.3984375 C-34.4669751 8.96192871 -33.55504395 8.52541992 -32.61547852 8.07568359 C-28.64618126 6.44320682 -26.12914489 5.62361837 -22 7 C-18.59772179 5.39718191 -15.34165225 3.65100569 -12.06835938 1.8046875 C-7.64297263 -0.56324629 -5.00163337 -1.64896531 0 0 Z " fill="#F0B263" transform="translate(182,67)"/>
<path d="M0 0 C0 0.66 0 1.32 0 2 C-0.91942383 2.43699219 -0.91942383 2.43699219 -1.85742188 2.8828125 C-13.64587181 8.49048203 -25.40777206 14.13620735 -37.06005859 20.02197266 C-40.61852784 21.81598572 -44.18487524 23.5942609 -47.75 25.375 C-49.05732319 26.02858279 -50.36461699 26.68222436 -51.671875 27.3359375 C-53.31929687 28.15964844 -53.31929687 28.15964844 -55 29 C-56.05960938 29.63808594 -56.05960938 29.63808594 -57.140625 30.2890625 C-59.8041907 31.30748468 -61.29542936 30.84492566 -64 30 C-65.96876871 29.04085627 -67.90684171 28.0166077 -69.8125 26.9375 C-70.78832031 26.38964844 -71.76414063 25.84179688 -72.76953125 25.27734375 C-73.50558594 24.85582031 -74.24164063 24.43429688 -75 24 C-70.13229765 20.14419579 -64.63869668 17.55601924 -59.125 14.75 C-57.51044922 13.89921875 -57.51044922 13.89921875 -55.86328125 13.03125 C-54.81785156 12.50015625 -53.77242187 11.9690625 -52.6953125 11.421875 C-51.74672363 10.93299805 -50.79813477 10.44412109 -49.82080078 9.94042969 C-45.69453415 8.56476939 -42.60544689 9.50834183 -38.53662109 10.75439453 C-34.81193854 11.11503271 -32.68708005 9.67704837 -29.4140625 7.9296875 C-28.14095487 7.27409859 -26.86750658 6.6191709 -25.59375 5.96484375 C-23.60501099 4.92281918 -21.62121583 3.87296617 -19.64355469 2.81005859 C-17.72391344 1.78532718 -15.78977104 0.79373723 -13.8515625 -0.1953125 C-12.70510254 -0.80391113 -11.55864258 -1.41250977 -10.37744141 -2.03955078 C-5.76772246 -3.35042503 -4.12296799 -2.24859373 0 0 Z " fill="#FEDC73" transform="translate(200,95)"/>
<path d="M0 0 C5.66576318 1.88858773 9.87736443 4.05060376 15 7 C15 13.27 15 19.54 15 26 C3.25 32 3.25 32 1 32 C1 32.66 1 33.32 1 34 C1.825 34.2475 2.65 34.495 3.5 34.75 C7.46840526 36.16728759 11.23097419 38.1154871 15 40 C15 46.27 15 52.54 15 59 C9 57 9 57 0 52 C0 34.84 0 17.68 0 0 Z " fill="#C2A77A" transform="translate(48,115)"/>
<path d="M0 0 C5.40504943 2.16201977 10.79316688 4.39658344 16 7 C16 19.54 16 32.08 16 45 C10.72 42.36 5.44 39.72 0 37 C0 24.79 0 12.58 0 0 Z " fill="#C0A25D" transform="translate(78,111)"/>
<path d="M0 0 C1.49772802 16.80783668 1.49772802 16.80783668 -1.55859375 21.28125 C-4.28935037 22.90929208 -7.00782907 23.91193784 -10 25 C-11.61592747 25.75955092 -13.22341763 26.53719204 -14.82421875 27.328125 C-18.20338522 28.99481763 -21.58658358 30.64658103 -25 32.2421875 C-25.721875 32.5810498 -26.44375 32.91991211 -27.1875 33.26904297 C-29 34 -29 34 -31 34 C-31 27.73 -31 21.46 -31 15 C-23.875 11.4375 -23.875 11.4375 -21.5168457 10.25952148 C-17.9599197 8.48255677 -14.40510915 6.70163541 -10.85546875 4.91015625 C-10.21561035 4.58797119 -9.57575195 4.26578613 -8.91650391 3.93383789 C-7.14291103 3.040502 -5.37026087 2.14529523 -3.59765625 1.25 C-1 0 -1 0 0 0 Z " fill="#998546" transform="translate(155,156)"/>
<path d="M0 0 C0 6.27 0 12.54 0 19 C-4.25324157 21.13807476 -8.50704524 23.27494039 -12.76245117 25.40869141 C-14.2110536 26.13551292 -15.65929686 26.86305074 -17.10717773 27.59130859 C-19.18380074 28.63565886 -21.26168574 29.67745833 -23.33984375 30.71875 C-23.99089584 31.04685669 -24.64194794 31.37496338 -25.31272888 31.7130127 C-29.88612829 34 -29.88612829 34 -31 34 C-31 27.73 -31 21.46 -31 15 C-29.08574219 14.08476562 -27.17148438 13.16953125 -25.19921875 12.2265625 C-23.34226667 11.33680936 -21.48569128 10.4462748 -19.62915039 9.55566406 C-18.34047985 8.93798368 -17.05142034 8.32111409 -15.76196289 7.70507812 C-13.90668081 6.81854642 -12.05282534 5.92909106 -10.19921875 5.0390625 C-8.52605591 4.23782959 -8.52605591 4.23782959 -6.8190918 3.42041016 C-0.03059471 0 -0.03059471 0 0 0 Z " fill="#916B3B" transform="translate(155,175)"/>
<path d="M0 0 C5.12300798 2.04920319 10.06486519 4.5324326 15 7 C15 19.54 15 32.08 15 45 C1 38 1 38 0 37 C-0.08858646 34.26105915 -0.11523479 31.5474673 -0.09765625 28.80859375 C-0.0962413 27.98875504 -0.09482635 27.16891632 -0.09336853 26.32423401 C-0.08775289 23.69528618 -0.07519779 21.06642227 -0.0625 18.4375 C-0.05748701 16.65950643 -0.05292376 14.88151154 -0.04882812 13.10351562 C-0.03777839 8.73564455 -0.02050331 4.36783652 0 0 Z " fill="#CCB15D" transform="translate(109,164)"/>
<path d="M0 0 C0 12.21 0 24.42 0 37 C-13 44 -13 44 -15 44 C-15 31.79 -15 19.58 -15 7 C-2 0 -2 0 0 0 Z " fill="#907A46" transform="translate(109,164)"/>
<path d="M0 0 C0 6.27 0 12.54 0 19 C-3.68665752 20.77260513 -7.37428588 22.54313896 -11.0625 24.3125 C-12.10083984 24.81201172 -13.13917969 25.31152344 -14.20898438 25.82617188 C-15.73168945 26.55610352 -15.73168945 26.55610352 -17.28515625 27.30078125 C-18.67553101 27.96847534 -18.67553101 27.96847534 -20.09399414 28.6496582 C-23.36453835 30.16939104 -26.68520475 31.57937346 -30 33 C-30 26.73 -30 20.46 -30 14 C-26.0507929 12.00246557 -22.1005287 10.00741275 -18.14697266 8.01855469 C-16.80184612 7.34095653 -15.45744044 6.66192541 -14.11376953 5.98144531 C-12.18448716 5.00470162 -10.25268782 4.03310723 -8.3203125 3.0625 C-7.15773926 2.47597656 -5.99516602 1.88945313 -4.79736328 1.28515625 C-2 0 -2 0 0 0 Z " fill="#835F33" transform="translate(147,51)"/>
<path d="M0 0 C4.95 2.31 9.9 4.62 15 7 C15 13.27 15 19.54 15 26 C13.02 25.34 11.04 24.68 9 24 C3.76981384 24.11886787 -0.17631854 26.52621077 -4.6328125 29.0390625 C-7.44579154 30.18096488 -8.22108125 30.11885305 -11 29 C-13.10157503 28.01726867 -15.18399347 26.99295986 -17.25 25.9375 C-18.32765625 25.38964844 -19.4053125 24.84179688 -20.515625 24.27734375 C-21.33546875 23.85582031 -22.1553125 23.43429688 -23 23 C-20.94551647 20.77946971 -19.05181884 19.33786247 -16.34765625 17.9921875 C-15.65349609 17.64542969 -14.95933594 17.29867187 -14.24414062 16.94140625 C-13.52419922 16.58949219 -12.80425781 16.23757812 -12.0625 15.875 C-11.34642578 15.51535156 -10.63035156 15.15570313 -9.89257812 14.78515625 C-6.52459982 13.11833474 -3.68951112 11.92237778 0 11 C0 7.37 0 3.74 0 0 Z " fill="#C18F4F" transform="translate(148,81)"/>
<path d="M0 0 C1.69580078 0.62084961 1.69580078 0.62084961 3.6953125 1.65234375 C4.34000488 1.97968506 4.98469727 2.30702637 5.64892578 2.64428711 C6.46603027 3.07104736 7.28313477 3.49780762 8.125 3.9375 C10.72375 5.278125 13.3225 6.61875 16 8 C16 14.27 16 20.54 16 27 C15.67 27 15.34 27 15 27 C15 21.06 15 15.12 15 9 C13.04835937 10.02222656 11.09671875 11.04445313 9.0859375 12.09765625 C7.1814874 13.08111325 5.27426971 14.058989 3.36669922 15.03637695 C2.04664709 15.71646755 0.72952872 16.40228522 -0.58447266 17.09399414 C-2.47849348 18.08975301 -4.38225833 19.06414875 -6.2890625 20.03515625 C-7.43068848 20.6269165 -8.57231445 21.21867676 -9.74853516 21.82836914 C-14.38105949 23.49765014 -17.35033622 22.70865838 -21.7734375 20.80859375 C-22.63195312 20.35613281 -23.49046875 19.90367188 -24.375 19.4375 C-25.24898438 18.98246094 -26.12296875 18.52742188 -27.0234375 18.05859375 C-27.67570312 17.70925781 -28.32796875 17.35992187 -29 17 C-29.33 20.3 -29.66 23.6 -30 27 C-30.33 27 -30.66 27 -31 27 C-31 23.04 -31 19.08 -31 15 C-29.1128125 14.319375 -29.1128125 14.319375 -27.1875 13.625 C-19.08392271 10.40929473 -11.48005044 6.0918932 -3.8125 1.96801758 C-2.55098369 1.29426863 -1.27917506 0.63958753 0 0 Z " fill="#EDB265" transform="translate(132,42)"/>
<path d="M0 0 C5.77014188 1.92338063 10.61312205 4.23376538 16 7 C16 13.27 16 19.54 16 26 C10.49331744 23.84197575 5.30354613 21.65177306 0 19 C0 12.73 0 6.46 0 0 Z " fill="#724422" transform="translate(63,156)"/>
<path d="M0 0 C0 5.94 0 11.88 0 18 C-7.92 21.96 -7.92 21.96 -16 26 C-16 19.73 -16 13.46 -16 7 C-13.73125 5.845 -11.4625 4.69 -9.125 3.5 C-8.41230957 3.13455078 -7.69961914 2.76910156 -6.96533203 2.39257812 C-2.22222222 0 -2.22222222 0 0 0 Z " fill="#6D512D" transform="translate(155,138)"/>
<path d="M0 0 C0 6.27 0 12.54 0 19 C-5.28 21.31 -10.56 23.62 -16 26 C-16 19.73 -16 13.46 -16 7 C-13.73125 5.845 -11.4625 4.69 -9.125 3.5 C-8.41230957 3.13455078 -7.69961914 2.76910156 -6.96533203 2.39257812 C-2.22222222 0 -2.22222222 0 0 0 Z " fill="#998546" transform="translate(186,160)"/>
<path d="M0 0 C0 6.27 0 12.54 0 19 C-2.26875 20.155 -4.5375 21.31 -6.875 22.5 C-7.58769043 22.86544922 -8.30038086 23.23089844 -9.03466797 23.60742188 C-13.77777778 26 -13.77777778 26 -16 26 C-17.21538561 9.74421751 -17.21538561 9.74421751 -14.46484375 5.796875 C-12.33439123 4.49972087 -10.3838619 3.7226341 -8 3 C-6.68360459 2.40436862 -5.37071287 1.80089441 -4.0625 1.1875 C-1 0 -1 0 0 0 Z " fill="#916B3B" transform="translate(186,122)"/>
<path d="M0 0 C0 6.27 0 12.54 0 19 C-5.28 21.31 -10.56 23.62 -16 26 C-16 19.73 -16 13.46 -16 7 C-13.73125 5.845 -11.4625 4.69 -9.125 3.5 C-8.41230957 3.13455078 -7.69961914 2.76910156 -6.96533203 2.39257812 C-2.22222222 0 -2.22222222 0 0 0 Z " fill="#907A46" transform="translate(155,119)"/>
<path d="M0 0 C5.18619546 2.07447818 10.02011595 4.47685875 15 7 C15 13.27 15 19.54 15 26 C10.05 23.69 5.1 21.38 0 19 C0 12.73 0 6.46 0 0 Z " fill="#C2A77B" transform="translate(109,164)"/>
<path d="M0 0 C5.3857627 1.71365177 9.88779718 3.44389859 15 6 C15 12.27 15 18.54 15 25 C9.33423682 23.11141227 5.12263557 20.94939624 0 18 C0 12.06 0 6.12 0 0 Z " fill="#1B5A28" transform="translate(94,138)"/>
<path d="M0 0 C5.66576318 1.88858773 9.87736443 4.05060376 15 7 C15 12.94 15 18.88 15 25 C9.6142373 23.28634823 5.11220282 21.55610141 0 19 C0 12.73 0 6.46 0 0 Z " fill="#CCCCCA" transform="translate(48,115)"/>
<path d="M0 0 C11.625 4.75 11.625 4.75 15 7 C15.34057617 8.97119141 15.34057617 8.97119141 15.29296875 11.3515625 C15.28330078 12.20234375 15.27363281 13.053125 15.26367188 13.9296875 C15.23853516 14.81914063 15.21339844 15.70859375 15.1875 16.625 C15.17396484 17.5221875 15.16042969 18.419375 15.14648438 19.34375 C15.11107473 21.56275471 15.05726654 23.78145176 15 26 C10.05 23.69 5.1 21.38 0 19 C0 12.73 0 6.46 0 0 Z " fill="#AF7E44" transform="translate(48,96)"/>
<path d="M0 0 C5.1854475 1.99943381 10.04461634 4.48927228 15 7 C15 13.27 15 19.54 15 26 C12.710625 24.865625 10.42125 23.73125 8.0625 22.5625 C7.34070557 22.20615479 6.61891113 21.84980957 5.87524414 21.48266602 C1.11111111 19.11111111 1.11111111 19.11111111 0 18 C-0.08631874 16.65732587 -0.10706473 15.31025678 -0.09765625 13.96484375 C-0.09443359 13.15595703 -0.09121094 12.34707031 -0.08789062 11.51367188 C-0.07951172 10.66353516 -0.07113281 9.81339844 -0.0625 8.9375 C-0.05798828 8.08349609 -0.05347656 7.22949219 -0.04882812 6.34960938 C-0.03700373 4.23304337 -0.01906769 2.11651315 0 0 Z " fill="#C2A77A" transform="translate(79,164)"/>
<path d="M0 0 C0 6.27 0 12.54 0 19 C-2.10375 20.155 -4.2075 21.31 -6.375 22.5 C-7.0354834 22.86544922 -7.6959668 23.23089844 -8.37646484 23.60742188 C-12.77777778 26 -12.77777778 26 -15 26 C-15 19.73 -15 13.46 -15 7 C-11.5659375 5.2675 -11.5659375 5.2675 -8.0625 3.5 C-7.34070557 3.13455078 -6.61891113 2.76910156 -5.87524414 2.39257812 C-1.11111111 0 -1.11111111 0 0 0 Z " fill="#8B6F3A" transform="translate(201,152)"/>
<path d="M0 0 C5.1854475 1.99943381 10.04461634 4.48927228 15 7 C15 13.27 15 19.54 15 26 C3.375 21.25 3.375 21.25 0 19 C-0.34057617 17.02880859 -0.34057617 17.02880859 -0.29296875 14.6484375 C-0.28330078 13.79765625 -0.27363281 12.946875 -0.26367188 12.0703125 C-0.23853516 11.18085938 -0.21339844 10.29140625 -0.1875 9.375 C-0.17396484 8.4778125 -0.16042969 7.580625 -0.14648438 6.65625 C-0.11106925 4.43690211 -0.06168461 2.21874812 0 0 Z " fill="#CCCCCA" transform="translate(109,145)"/>
<path d="M0 0 C0 5.94 0 11.88 0 18 C-2.289375 19.32 -4.57875 20.64 -6.9375 22 C-7.65929443 22.41765625 -8.38108887 22.8353125 -9.12475586 23.265625 C-13.88888889 26 -13.88888889 26 -15 26 C-15 19.73 -15 13.46 -15 7 C-12.89625 5.845 -10.7925 4.69 -8.625 3.5 C-7.9645166 3.13455078 -7.3040332 2.76910156 -6.62353516 2.39257812 C-2.22222222 0 -2.22222222 0 0 0 Z " fill="#835F33" transform="translate(109,164)"/>
<path d="M0 0 C5.66576318 1.88858773 9.87736443 4.05060376 15 7 C15 12.94 15 18.88 15 25 C9.75883714 23.25294571 5.0101324 21.27733291 0 19 C0 12.73 0 6.46 0 0 Z " fill="#916C3C" transform="translate(94,119)"/>
<path d="M0 0 C1.52321083 16.14603482 1.52321083 16.14603482 -2.05078125 20.49609375 C-6.34844731 23.04922574 -10.077293 24.0154586 -15 25 C-15 19.06 -15 13.12 -15 7 C-12.89625 5.845 -10.7925 4.69 -8.625 3.5 C-7.9645166 3.13455078 -7.3040332 2.76910156 -6.62353516 2.39257812 C-2.22222222 0 -2.22222222 0 0 0 Z " fill="#998546" transform="translate(201,115)"/>
<path d="M0 0 C1.21538561 16.25578249 1.21538561 16.25578249 -1.53515625 20.203125 C-3.68579467 21.51256959 -5.59444642 22.25478035 -8 23 C-10.31 23.99 -12.62 24.98 -15 26 C-15 19.73 -15 13.46 -15 7 C-12.89625 5.845 -10.7925 4.69 -8.625 3.5 C-7.9645166 3.13455078 -7.3040332 2.76910156 -6.62353516 2.39257812 C-2.22222222 0 -2.22222222 0 0 0 Z " fill="#835F33" transform="translate(139,127)"/>
<path d="M0 0 C1.67542976 0.28604898 3.34385343 0.61781233 5 1 C5 1.66 5 2.32 5 3 C4.36191406 3.23332031 3.72382813 3.46664062 3.06640625 3.70703125 C0.32701292 4.916467 -1.75664239 6.0021419 -4 8 C-5.09034535 11.69678995 -5.16788169 15.16558228 -5 19 C-7.89217969 21.26477563 -10.32950001 22.55035153 -14 23 C-19.10867693 21.30957802 -23.60286267 18.0273321 -28 15 C-25.03135893 12.62003265 -22.05498986 10.94884044 -18.61328125 9.3359375 C-17.59298828 8.85382813 -16.57269531 8.37171875 -15.52148438 7.875 C-13.93303711 7.1325 -13.93303711 7.1325 -12.3125 6.375 C-10.20356307 5.38465033 -8.09544317 4.39255828 -5.98828125 3.3984375 C-5.05540283 2.96192871 -4.12252441 2.52541992 -3.16137695 2.07568359 C-1.07350953 1.17950495 -1.07350953 1.17950495 0 0 Z " fill="#DEAC4C" transform="translate(153,73)"/>
<path d="M0 0 C1.56467003 0.59852427 3.12664086 1.20410673 4.6875 1.8125 C5.55761719 2.14894531 6.42773438 2.48539062 7.32421875 2.83203125 C8.20722656 3.21746094 9.09023437 3.60289063 10 4 C10.928125 4.3403125 11.85625 4.680625 12.8125 5.03125 C15 7 15 7 15.3918457 9.02026367 C15.49403006 11.59401609 15.43483265 14.11475028 15.3125 16.6875 C15.27866211 18.02651367 15.27866211 18.02651367 15.24414062 19.39257812 C15.18520574 21.59674272 15.10300818 23.79752672 15 26 C12.68628057 24.85657478 10.37400323 23.71038936 8.0625 22.5625 C7.40314453 22.23701172 6.74378906 21.91152344 6.06445312 21.57617188 C1.11328125 19.11328125 1.11328125 19.11328125 0 18 C-0.08631874 16.65732587 -0.10706473 15.31025678 -0.09765625 13.96484375 C-0.09443359 13.15595703 -0.09121094 12.34707031 -0.08789062 11.51367188 C-0.07951172 10.66353516 -0.07113281 9.81339844 -0.0625 8.9375 C-0.05798828 8.08349609 -0.05347656 7.22949219 -0.04882812 6.34960938 C-0.03700373 4.23304337 -0.01906769 2.11651315 0 0 Z " fill="#195928" transform="translate(63,122)"/>
<path d="M0 0 C0 2.31 0 4.62 0 7 C0.94875 7.28875 1.8975 7.5775 2.875 7.875 C6 9 6 9 8 11 C5.80287871 12.23399963 3.59636099 13.43610257 1.375 14.625 C0.75753906 14.975625 0.14007813 15.32625 -0.49609375 15.6875 C-3.71562899 17.38199223 -5.51352253 18.09729549 -9.125 17.375 C-10.07375 16.92125 -11.0225 16.4675 -12 16 C-12.91523437 15.57460937 -13.83046875 15.14921875 -14.7734375 14.7109375 C-15.63195312 14.27007812 -16.49046875 13.82921875 -17.375 13.375 C-18.24898438 12.92898437 -19.12296875 12.48296875 -20.0234375 12.0234375 C-20.67570312 11.68570313 -21.32796875 11.34796875 -22 11 C-18.40982693 8.08929703 -14.49850365 5.97810754 -10.4375 3.8125 C-9.76525391 3.44447266 -9.09300781 3.07644531 -8.40039062 2.69726562 C-3.36115782 0 -3.36115782 0 0 0 Z " fill="#FEDD74" transform="translate(101,70)"/>
<path d="M0 0 C1.05574219 0.54527344 2.11148438 1.09054688 3.19921875 1.65234375 C4.26785156 2.20019531 5.33648437 2.74804688 6.4375 3.3125 C7.24574219 3.73402344 8.05398437 4.15554687 8.88671875 4.58984375 C6.02115196 6.84515095 3.12394301 8.6620141 -0.11328125 10.33984375 C-0.95890625 10.7884375 -1.80453125 11.23703125 -2.67578125 11.69921875 C-5.5167547 12.73726674 -6.34328661 12.69888296 -9.11328125 11.58984375 C-11.21485628 10.60711242 -13.29727472 9.58280361 -15.36328125 8.52734375 C-16.4409375 7.97949219 -17.51859375 7.43164062 -18.62890625 6.8671875 C-19.44875 6.44566406 -20.26859375 6.02414063 -21.11328125 5.58984375 C-18.7675976 2.98352858 -16.34627944 1.44580026 -13.23828125 -0.16015625 C-12.39523438 -0.60875 -11.5521875 -1.05734375 -10.68359375 -1.51953125 C-6.47077737 -2.97929133 -3.96447748 -1.79570435 0 0 Z " fill="#8E552A" transform="translate(146.11328125,98.41015625)"/>
<path d="M0 0 C0.66 0.66 1.32 1.32 2 2 C-5.7404402 6.28170902 -13.55249426 10.42998674 -21.5625 14.1875 C-22.54283203 14.67875366 -22.54283203 14.67875366 -23.54296875 15.17993164 C-25.44140625 16.04296875 -25.44140625 16.04296875 -29 17 C-32.46484375 15.67578125 -32.46484375 15.67578125 -35 14 C-35 13.34 -35 12.68 -35 12 C-31.35341963 10.16434014 -27.70552447 8.33132285 -24.05639648 6.50073242 C-22.81547308 5.87775807 -21.57490981 5.2540658 -20.3347168 4.62963867 C-18.55091936 3.73166775 -16.76571153 2.83650027 -14.98046875 1.94140625 C-13.90692139 1.40201416 -12.83337402 0.86262207 -11.72729492 0.30688477 C-6.89004561 -2.0110631 -4.96951143 -2.00895143 0 0 Z " fill="#FDDB74" transform="translate(153,71)"/>
<path d="M0 0 C0.99 0.53625 1.98 1.0725 3 1.625 C4.79092176 2.50152364 6.58264328 3.37641437 8.375 4.25 C9.91866216 5.03776859 11.46101439 5.82813394 13 6.625 C10.55372465 9.41605241 7.97366033 10.81534998 4.625 12.375 C3.68914062 12.82359375 2.75328125 13.2721875 1.7890625 13.734375 C-2.52480012 15.11191096 -4.90257348 14.15964369 -8.89453125 12.21484375 C-10.33892578 11.39693359 -10.33892578 11.39693359 -11.8125 10.5625 C-12.78832031 10.01464844 -13.76414062 9.46679688 -14.76953125 8.90234375 C-15.50558594 8.48082031 -16.24164063 8.05929688 -17 7.625 C-6.23966942 -0.77995868 -6.23966942 -0.77995868 0 0 Z " fill="#8E552A" transform="translate(96,88.375)"/>
<path d="M0 0 C1.42699219 0.67869141 1.42699219 0.67869141 2.8828125 1.37109375 C4.33300781 2.05365234 4.33300781 2.05365234 5.8125 2.75 C6.89917969 3.27400391 6.89917969 3.27400391 8.0078125 3.80859375 C3.87268284 8.31712977 -0.99521511 11.4952903 -6.9921875 12.80859375 C-12.15825017 11.69457568 -16.63542258 8.68302741 -20.9921875 5.80859375 C-20.9921875 5.14859375 -20.9921875 4.48859375 -20.9921875 3.80859375 C-19.12810208 2.76796354 -17.25033679 1.7518146 -15.3671875 0.74609375 C-14.32304688 0.17761719 -13.27890625 -0.39085938 -12.203125 -0.9765625 C-7.46937641 -2.76755497 -4.59138734 -1.82816337 0 0 Z " fill="#DB9E55" transform="translate(115.9921875,83.19140625)"/>
<path d="M0 0 C-2.34568365 2.60631517 -4.76700181 4.14404349 -7.875 5.75 C-8.71804687 6.19859375 -9.56109375 6.6471875 -10.4296875 7.109375 C-13.53713797 8.18612075 -14.89200038 8.0169031 -18 7 C-19.96876871 6.04085627 -21.90684171 5.0166077 -23.8125 3.9375 C-24.78832031 3.38964844 -25.76414062 2.84179688 -26.76953125 2.27734375 C-27.50558594 1.85582031 -28.24164063 1.43429688 -29 1 C-27.0625 -0.75 -27.0625 -0.75 -24 -3 C-23.40316406 -3.46277344 -22.80632812 -3.92554687 -22.19140625 -4.40234375 C-14.19827919 -9.37349461 -7.30141479 -4.11726684 0 0 Z " fill="#F0CB74" transform="translate(124,118)"/>
<path d="M0 0 C2.62035666 1.62506152 4.95758576 3.46851397 7.32421875 5.44140625 C5.27060455 6.64711532 3.2086672 7.83047266 1.13671875 9.00390625 C0.55857422 9.34615234 -0.01957031 9.68839844 -0.61523438 10.04101562 C-3.25769892 11.51900427 -5.18018138 12.45953795 -8.23828125 12.34765625 C-11.15870408 11.26185802 -13.77684819 9.91429605 -16.48828125 8.37890625 C-17.46410156 7.83105469 -18.43992188 7.28320312 -19.4453125 6.71875 C-20.18136719 6.29722656 -20.91742188 5.87570313 -21.67578125 5.44140625 C-14.34290469 -0.20055586 -9.01192838 -4.27508008 0 0 Z " fill="#F0CB74" transform="translate(146.67578125,113.55859375)"/>
<path d="M0 0 C0 0.66 0 1.32 0 2 C-1.0058313 2.47626831 -1.0058313 2.47626831 -2.03198242 2.9621582 C-5.08507777 4.40963955 -8.13629945 5.86102907 -11.1875 7.3125 C-12.24259766 7.81201172 -13.29769531 8.31152344 -14.38476562 8.82617188 C-15.40634766 9.31279297 -16.42792969 9.79941406 -17.48046875 10.30078125 C-18.88655396 10.96847534 -18.88655396 10.96847534 -20.32104492 11.6496582 C-23.04723983 12.97180538 -23.04723983 12.97180538 -25.6809082 14.68041992 C-28 16 -28 16 -30.625 15.8125 C-33 15 -33 15 -36 13 C-36 12.34 -36 11.68 -36 11 C-32.01443221 8.91777064 -28.01325478 6.87065406 -23.99438477 4.85375977 C-22.63090801 4.16352494 -21.27206507 3.46405378 -19.91821289 2.75512695 C-17.96617524 1.73502061 -15.99964394 0.74976593 -14.02734375 -0.23046875 C-13.42913315 -0.55218552 -12.83092255 -0.87390228 -12.21458435 -1.20536804 C-7.07581294 -3.69042274 -4.71854301 -2.57925941 0 0 Z " fill="#F0CB74" transform="translate(200,95)"/>
<path d="M0 0 C2.1640625 1.13671875 2.1640625 1.13671875 5.2890625 3.57421875 C0.54057879 7.41390175 -4.83163324 9.95153077 -10.7109375 11.57421875 C-14.4609375 10.38671875 -14.4609375 10.38671875 -16.7109375 8.57421875 C-16.7109375 7.91421875 -16.7109375 7.25421875 -16.7109375 6.57421875 C-4.57820207 -0.71905479 -4.57820207 -0.71905479 0 0 Z " fill="#EDC872" transform="translate(134.7109375,76.42578125)"/>
<path d="M0 0 C0 2.31 0 4.62 0 7 C-2.35171131 6.40138258 -4.6859378 5.73075648 -7 5 C-7.33 4.34 -7.66 3.68 -8 3 C-2.25 0 -2.25 0 0 0 Z " fill="#B6874B" transform="translate(148,92)"/>
<path d="M0 0 C0 1.98 0 3.96 0 6 C-4.875 4.25 -4.875 4.25 -6 2 C-3 0 -3 0 0 0 Z " fill="#F0CB74" transform="translate(101,70)"/>
</svg>
