<?xml version="1.0"?>
<svg width="700" height="250" xmlns="http://www.w3.org/2000/svg" xmlns:svg="http://www.w3.org/2000/svg" enable-background="new 0 0 700 250" version="1.1" xml:space="preserve">

 <g class="layer">
  <title>Layer 1</title>
  <path d="m210,114c0,18.5 -0.06,36.49 0.03,54.49c0.03,5.41 -1.89,9.11 -7.01,11.59c-15.49,7.46 -30.82,15.25 -46.2,22.94c-8.47,4.25 -16.95,8.48 -25.34,12.88c-4.2,2.21 -8.16,2.26 -12.19,-0.18c-0.55,-0.33 -1.24,-0.45 -1.72,-0.84c-5.03,-4.12 -9.88,-3.88 -15.13,-0.1c-4.84,3.48 -9.94,2.68 -15.1,0.02c-13.02,-6.72 -26.07,-13.38 -39.29,-19.71c-5.14,-2.46 -7.09,-6.1 -7.08,-11.52c0.07,-28.16 0.06,-56.32 0,-84.48c-0.01,-5.05 1.83,-8.69 6.5,-10.95c10.41,-5.02 20.73,-10.22 31.11,-15.29c4.18,-2.04 8.4,-4.02 12.68,-5.84c2.72,-1.16 4.22,-2.72 3.78,-5.92c-0.77,-5.51 2.1,-8.83 6.87,-11.12c8.38,-4.02 16.71,-8.16 24.97,-12.43c4.11,-2.13 8.03,-2.21 12.11,-0.09c3.99,2.07 7.99,4.15 12.07,6.05c3.54,1.65 5.11,4.29 4.96,8.15c-0.11,3.17 -0.04,6.34 -0.02,9.5c0.05,5.25 2.32,6.72 6.88,4.44c3.6,-1.81 7.01,-4.29 10.81,-5.29c3.37,-0.89 7.47,-1.04 10.7,0.07c4.79,1.65 9.32,4.38 13.52,7.3c1.92,1.33 3.59,4.08 3.91,6.39c0.62,4.41 0.18,8.96 0.18,13.56c6.44,2.01 8.33,6.71 8.04,12.89c-0.2,4.32 -0.04,8.66 -0.04,13.49m-54.38,-40.57c-2.4,-1.18 -4.8,-2.36 -7.18,-4.46c-0.09,-5.77 -0.18,-11.55 -0.69,-17.84c-3.87,-2.15 -7.69,-4.41 -11.65,-6.39c-1.21,-0.6 -3.1,-1.08 -4.17,-0.56c-9.99,4.82 -19.86,9.88 -29.9,15.76c-0.07,3.59 -0.14,7.18 -0.91,10.91c-1.8,1 -3.61,1.99 -6.13,3.07c-15.01,7.68 -30.02,15.37 -45.76,23.51c-0.04,6.16 -0.08,12.31 -0.19,19.41c0.02,6.08 0.05,12.17 -0.01,19.17c0.04,10.68 0.09,21.35 0,32.95c-0.01,4.64 0.13,9.29 -0.09,13.92c-0.12,2.65 0.7,4.02 3.18,5.24c13.29,6.49 26.45,13.24 39.67,19.86c0.99,0.5 2.16,0.64 3.97,1.04c4.73,-2.39 9.46,-4.78 14.83,-6.87c4.83,2.54 9.65,5.09 15.17,7.56c10.09,-5.2 20.19,-10.4 31.02,-15.71c4.74,-2.39 9.47,-4.78 14.91,-7.25c5.12,-2.55 10.23,-5.1 16.07,-7.75c14.43,-6.85 14.44,-6.85 14.23,-22.54c-0.01,-0.83 -0.12,-1.65 -0.03,-3.4c-0.04,-6.34 -0.08,-12.67 0.01,-19.94c-0.04,-5.71 -0.09,-11.42 0,-18.05c-0.29,-6.05 -0.57,-12.1 -1.24,-18.72c-1.95,-1.13 -3.9,-2.26 -5.75,-4.32c-0.32,-5.97 -0.64,-11.94 -1.57,-18.28c-8.71,-5.96 -17.43,-8.72 -26.86,-1.13c-1.95,1.58 -5.02,1.76 -8.15,2.29c-0.78,-0.32 -1.56,-0.64 -2.78,-1.48z" fill="#FFFFFF" id="svg_2" opacity="1"/>
  <path d="m429.43,193c-1.44,-1.22 -2.87,-2.28 -3.37,-3.68c-5.84,-16.28 -11.54,-32.61 -17.3,-48.91c-0.26,-0.74 -0.82,-1.37 -1.72,-2.84c-0.3,13.33 -8.17,15.42 -18.98,12.99c0,14.51 0,28.25 0,42.21c-5.79,0 -11.2,0 -17,0c0,-13.84 0,-27.57 0,-41.65c-7.48,0 -14.58,0 -22.18,0c1.6,-4.96 2.79,-9.58 4.67,-13.91c0.63,-1.46 3,-3.06 4.59,-3.07c20.82,-0.21 41.65,-0.1 62.47,-0.18c2.7,-0.02 3.8,0.76 4.74,3.54c3.11,9.24 6.81,18.28 10.74,28.62c4.28,-11.21 8.24,-21.6 12.57,-32.95c4.2,11.23 8.05,21.51 12.33,32.92c1.89,-4.55 3.55,-8.22 4.96,-11.98c2.12,-5.7 3.89,-11.54 6.21,-17.15c0.54,-1.32 2.61,-2.71 4.07,-2.83c4.64,-0.36 9.32,-0.13 14.72,-0.13c-3.52,9.82 -6.95,19.33 -10.35,28.85c-3.22,9.05 -6.31,18.16 -9.75,27.13c-0.5,1.32 -2.56,2.74 -4.02,2.88c-3.95,0.4 -7.97,0.14 -12.23,0.14c-1.93,-4.81 -3.86,-9.66 -6.03,-15.07c-1.64,3.99 -3.55,7.42 -4.41,11.09c-0.76,3.25 -2.12,4.29 -5.28,4.03c-2.98,-0.24 -6,-0.05 -9.45,-0.05z" fill="#FFFFFF" id="svg_3" opacity="1"/>
  <path d="m251.93,193c-3.79,0 -7.09,0 -10.66,0c0,-19.64 0,-39.04 0,-59c5.2,0 10.47,-0.08 15.73,0.08c0.79,0.03 1.74,1.01 2.31,1.78c6.07,8.16 12.08,16.37 18.33,24.87c0,-8.75 0,-17.38 0,-26.37c6.15,0 11.89,0 18,0c0,19.22 0,38.73 0,58.64c-5.14,0 -10.32,0.45 -15.35,-0.22c-2.03,-0.27 -4.12,-2.7 -5.53,-4.63c-5.49,-7.49 -10.73,-15.18 -16.64,-23.62c0,9.94 0,18.95 0,28.47c-2.16,0 -3.93,0 -6.19,0z" fill="#FFFFFF" id="svg_4" opacity="1"/>
  <path d="m334.7,63.2c7.74,5.33 11.82,12.08 13.52,21.24c2.83,15.16 -7.31,29.04 -17.91,33.36c-20.63,8.41 -42.64,-5.03 -43.45,-26.88c-0.67,-18.27 11.2,-30.53 28.66,-32.72c6.5,-0.82 13.2,0.79 19.18,5m-5.7,31.83c0.33,-2.06 0.93,-4.12 0.95,-6.19c0.07,-6.04 -3.92,-10.92 -9.43,-11.83c-6.66,-1.1 -12.52,2.11 -14.55,7.97c-2.18,6.29 -0.21,11.97 5.23,15.06c6.45,3.66 10.59,2.66 17.8,-5.01z" fill="#FFFFFF" id="svg_5" opacity="1"/>
  <path d="m561.34,74.82c8.16,17.96 1,35.45 -14.53,42.62c-20.44,9.44 -43.38,-4.57 -43.97,-26.9c-0.48,-18.47 12.07,-30.98 29.04,-32.28c12.57,-0.97 23.01,4.48 29.46,16.56m-16.12,19.42c0.26,-2.4 0.95,-4.85 0.69,-7.2c-0.54,-4.95 -3.57,-8.54 -8.26,-9.7c-5.11,-1.28 -10.04,-0.62 -13.75,4.17c-2.84,3.68 -3.87,7.45 -2.13,11.71c4.54,11.12 15,11.9 23.45,1.02z" fill="#FFFFFF" id="svg_6" opacity="1"/>
  <path d="m508.85,133.62c8.4,-2.08 16.22,-1.98 23.73,2.3c9.33,5.3 15.43,12.82 16.35,23.67c1.11,13.02 -3.38,23.6 -15.04,30.41c-17.26,10.06 -39.4,1.82 -45.38,-17.01c-5.85,-18.42 6.04,-35.57 20.34,-39.37m10.48,17.38c-0.49,0 -0.99,-0.01 -1.49,0c-7.97,0.27 -11.84,5.25 -12.58,12.49c-0.55,5.45 6.3,12.07 12.07,12.51c6.86,0.52 12.69,-4.44 13.67,-11.63c0.79,-5.87 -4.39,-12.29 -11.67,-13.37z" fill="#FFFFFF" id="svg_7" opacity="1"/>
  <path d="m582.82,151c-11.13,0 -21.78,0 -33.19,0c2,-5.82 3.86,-11.18 5.52,-16c13.55,0 27.12,-0.61 40.59,0.23c8.09,0.5 13.24,7.92 13.25,16.1c0.01,3.66 0.53,7.45 -0.24,10.95c-1.38,6.27 -4.78,11.28 -13.28,13.37c6.31,6.02 11.88,11.34 18.18,17.35c-7.54,0 -14.27,0.09 -20.99,-0.09c-1.08,-0.03 -2.28,-1.11 -3.16,-1.98c-4.26,-4.2 -8.42,-8.49 -13.2,-13.35c0,5.4 0,10.09 0,15.1c-5.83,0 -11.24,0 -16.98,0c0,-10.89 0,-21.96 0,-33.68c8.07,0 16.33,0 24.58,0c1.34,0 2.88,0.43 3.95,-0.1c1.56,-0.77 3.71,-2.12 3.88,-3.43c0.15,-1.27 -1.61,-3.35 -3.04,-4.08c-1.48,-0.75 -3.57,-0.31 -5.87,-0.39z" fill="#FFFFFF" id="svg_8" opacity="1"/>
  <path d="m453.39,76.82c-8.56,0.16 -16.71,0.16 -25.07,0.16c-0.59,2.58 -0.8,4.24 2.67,4.08c4.94,-0.23 9.91,-0.06 15.48,-0.06c-1.82,5.41 -3.32,10.29 -5.17,15.04c-0.37,0.93 -2.07,1.78 -3.23,1.87c-3.13,0.26 -6.29,0.09 -9.82,0.09c-0.07,1.33 -0.14,2.51 -0.22,4.02c10.55,0 20.67,0 31.41,0c-2.07,5.86 -3.97,11.26 -5.91,16.78c-13.95,0 -28.05,0 -42.33,0c0,-19.6 0,-39 0,-58.6c15.95,0 31.72,0 48.13,0c-1.9,5.67 -3.71,11.07 -5.94,16.62z" fill="#FFFFFF" id="svg_9" opacity="1"/>
  <path d="m344.61,149.85c-5.71,0.58 -11.09,0.91 -16.48,1.13c-2.82,0.11 -5.64,0.02 -8.84,0.02c-0.09,1.3 -0.16,2.47 -0.26,3.99c6.17,0 11.96,0 18.27,0c-2,5.84 -3.85,11.25 -5.78,16.89c-3.78,0 -7.76,0 -12.13,0c-0.14,1.32 -0.26,2.5 -0.41,4.03c10.43,0 20.54,0 31.18,0c-1.84,5.38 -3.41,10.35 -5.3,15.21c-0.34,0.88 -1.96,1.79 -3,1.8c-13.12,0.12 -26.25,0.08 -39.61,0.08c0,-19.69 0,-39.09 0,-58.74c15.77,0 31.51,0 47.81,0c-1.73,5.16 -3.44,10.23 -5.45,15.59z" fill="#FFFFFF" id="svg_10" opacity="1"/>
  <path d="m663.74,144.76c-4.64,6.48 -9.01,12.7 -13.4,18.93c6.76,9.44 13.69,19.1 21.01,29.31c-1.5,0 -2.13,-0.01 -2.75,0c-17.73,0.17 -17.74,0.18 -28.2,-14.13c-2.28,-3.11 -4.48,-6.27 -7.11,-9.98c0,8.17 0,15.82 0,23.79c-5.83,0 -11.24,0 -17.29,0c0,-9.58 0,-19.33 0,-29.09c0,-9.65 0,-19.3 0,-29.27c5.55,0 10.96,0 16.71,0c0,7.58 0,15.34 0,24.5c5.26,-6.81 10.2,-12.3 14.04,-18.47c3.02,-4.85 6.32,-7.21 12.12,-6.44c3.76,0.49 7.65,0.09 12.39,0.09c-2.63,3.8 -4.94,7.15 -7.52,10.76z" fill="#FFFFFF" id="svg_11" opacity="1"/>
  <path d="m399.69,77c-7.52,0.32 -14.58,0.62 -21.64,0.97c-6.78,0.34 -11.14,6.63 -10.08,14.07c0.7,4.88 6.71,9.82 12.86,9.92c8.64,0.15 17.28,0.04 26.4,0.04c-1.84,5.19 -3.45,10.02 -5.32,14.76c-0.38,0.95 -1.77,2.15 -2.67,2.13c-9.39,-0.16 -19.03,0.68 -28.11,-1.18c-13.86,-2.84 -23.73,-18.41 -20.78,-33.49c3.02,-15.41 16.69,-25.24 31.63,-24.32c8.59,0.53 17.24,0.1 26.37,0.1c-1.94,5.81 -3.65,11.12 -5.57,16.35c-0.18,0.47 -1.72,0.45 -3.09,0.65z" fill="#FFFFFF" id="svg_12" opacity="1"/>
  <path d="m574.26,60c16.76,0 33.05,0 50.39,0c-2.03,5.73 -3.79,10.95 -5.81,16.06c-0.24,0.6 -1.88,0.87 -2.88,0.9c-3.8,0.1 -7.61,0.04 -11.79,0.04c0,13.96 0,27.69 0,41.71c-6.1,0 -11.83,0 -17.95,0c0,-13.62 0,-27.35 0,-41.57c-7.26,0 -14.15,0 -21.81,0c2.03,-5.77 3.7,-10.93 5.74,-15.93c0.32,-0.77 2.38,-0.83 4.11,-1.21z" fill="#FFFFFF" id="svg_13" opacity="1"/>
  <path d="m483.99,119c-7.13,0 -13.77,0 -20.69,0c0,-19.57 0,-38.95 0,-58.66c5.2,0 10.6,0 16.55,0c0,13.59 0,27.43 0,41.5c7.81,0 15.08,0 23.14,0c-2,5.42 -3.73,10.42 -5.74,15.31c-0.35,0.85 -1.8,1.7 -2.79,1.77c-3.32,0.22 -6.65,0.08 -10.47,0.08z" fill="#FFFFFF" id="svg_14" opacity="1"/>
  <path d="m49.96,96.97c15.01,-7.68 30.02,-15.37 45.72,-22.94c2.57,1.07 4.44,2.02 6.52,3.24c2.74,1.76 5.27,3.24 7.45,4.77c-4.8,2.37 -9.23,4.7 -14.03,7.04c-5.36,2.4 -10.35,4.8 -16.04,7.53c5.2,2.73 9.79,5.14 14.17,7.81c-4.74,2.7 -9.25,5.15 -14.03,7.61c-0.45,0.02 -0.63,0.04 -1.11,-0.11c-5.06,-2.71 -9.81,-5.25 -14.89,-7.95c-4.8,-2.44 -9.28,-4.72 -13.76,-7z" fill="#F4CF74" id="svg_15" opacity="1"/>
  <path d="m201.84,134.05c0.04,6.34 0.08,12.67 -0.32,19.48c-5.13,2.81 -9.83,5.14 -14.88,7.51c-5.45,2.34 -10.55,4.64 -15.64,6.48c0,-5.98 0,-11.5 0,-17.62c-5.61,2.63 -10.32,4.84 -15.02,6.58c0.01,-6.14 0.01,-11.83 0.22,-17.79c5.06,-2.73 9.92,-5.19 14.79,-7.19c0,5.96 0,11.46 0,18.18c6.07,-3.29 11.04,-5.99 16.38,-8.72c5.07,-2.33 9.77,-4.62 14.47,-6.91z" fill="#835F33" id="svg_16" opacity="1"/>
  <path d="m95.03,208.93c-1.08,-0.31 -2.25,-0.45 -3.24,-0.95c-13.22,-6.62 -26.38,-13.37 -39.67,-19.86c-2.48,-1.22 -3.3,-2.59 -3.18,-5.24c0.22,-4.63 0.08,-9.28 0.5,-14.35c5.08,1.86 9.74,4.16 14.61,6.74c5.43,2.76 10.65,5.23 16.2,7.83c5.08,2.7 9.85,5.25 14.66,8.28c0.07,6.17 0.09,11.86 0.12,17.55z" fill="#C0A25D" id="svg_17" opacity="1"/>
  <path d="m194.02,74.12c0.32,5.97 0.64,11.94 0.56,18.42c-2.84,1.82 -5.26,3.18 -7.74,4.43c-7.28,3.68 -14.58,7.31 -22.11,10.97c-0.23,0.01 -0.69,-0.07 -0.71,-0.53c0,-6.42 0.02,-12.37 0.35,-18.47c10.1,-5.04 19.87,-9.93 29.65,-14.82z" fill="#958866" id="svg_18" opacity="1"/>
  <path d="m156.05,194.12c-10.1,5.19 -20.2,10.39 -30.65,15.17c-0.34,-6.37 -0.31,-12.34 0.06,-18.34c10.41,-5.01 20.48,-9.98 30.54,-14.48c0.02,6.19 0.03,11.92 0.05,17.65z" fill="#916B3B" id="svg_19" opacity="1"/>
  <path d="m148.17,51.65c0.09,5.77 0.18,11.55 -0.12,17.86c-9.97,5.5 -19.55,10.46 -29.34,15.44c-0.21,0.02 -0.62,-0.01 -0.65,-0.47c-0.01,-6.44 0.01,-12.41 0.35,-18.55c10.12,-4.87 19.94,-9.58 29.76,-14.28z" fill="#835F33" id="svg_20" opacity="1"/>
  <path d="m156.41,194.06c-0.38,-5.67 -0.39,-11.4 -0.41,-18.06c0,-6.95 0.01,-12.96 -0.01,-18.99c-0.01,-0.02 -0.02,-0.06 -0.02,-0.06c4.71,-2.21 9.42,-4.42 15.03,-7.05c0,6.12 0,11.64 0,18.09c0,6.91 -0.01,12.87 -0.01,18.84c-4.74,2.39 -9.47,4.78 -14.58,7.23z" fill="#907A46" id="svg_21" opacity="1"/>
  <path d="m147.96,51.39c-9.61,4.96 -19.43,9.67 -29.92,14.48c-5.75,-2.21 -10.82,-4.52 -15.88,-6.83c9.91,-4.98 19.78,-10.04 29.77,-14.86c1.07,-0.52 2.96,-0.04 4.17,0.56c3.96,1.98 7.78,4.24 11.86,6.65z" fill="#EFB365" id="svg_22" opacity="1"/>
  <path d="m193.72,73.93c-9.48,5.08 -19.25,9.97 -29.71,14.95c-5.14,-2.22 -9.6,-4.53 -13.86,-7.11c3.07,-2.38 5.95,-4.47 8.82,-6.56c2.56,-0.83 5.63,-1.01 7.58,-2.59c9.43,-7.59 18.15,-4.83 27.17,1.31z" fill="#F1B363" id="svg_23" opacity="1"/>
  <path d="m63.84,174.98c-4.66,-2.29 -9.32,-4.59 -14.33,-6.92c-0.39,-10.7 -0.44,-21.37 -0.08,-32.51c5.11,1.5 9.82,3.46 14.35,5.71c-4.68,2.67 -9.19,5.05 -14.29,7.73c5.48,3.05 10.01,5.57 14.53,8.55c-0.07,6.12 -0.12,11.78 -0.18,17.44z" fill="#C2A77B" id="svg_24" opacity="1"/>
  <path d="m102.09,59.49c5.13,1.86 10.2,4.17 15.64,6.55c0.34,6.03 0.32,12 -0.04,18.43c-2.78,-0.52 -5.23,-1.5 -7.68,-2.47c-2.54,-1.49 -5.07,-2.97 -7.8,-5.18c-0.25,-2.51 -0.32,-4.31 -0.39,-6.11c0.07,-3.59 0.14,-7.18 0.27,-11.22z" fill="#C18F4F" id="svg_25" opacity="1"/>
  <path d="m171.34,186.79c-0.35,-5.93 -0.34,-11.89 -0.34,-18.33c5.09,-2.78 10.19,-5.08 15.64,-6.95c0.37,6.15 0.38,11.87 0.39,17.59c-5.11,2.55 -10.22,5.1 -15.69,7.69z" fill="#998546" id="svg_26" opacity="1"/>
  <path d="m63.96,140.97c-4.71,-1.96 -9.42,-3.92 -14.49,-5.88c-0.38,-6.08 -0.41,-12.17 -0.05,-18.66c5.06,1.94 9.73,4.3 14.45,6.69c0.04,0.03 0.15,-0.01 0.14,0.45c0,6.09 0,11.73 -0.01,17.38c-0.01,0 -0.04,0.02 -0.04,0.02z" fill="#CCCCCA" id="svg_27" opacity="1"/>
  <path d="m63.82,123.09c-4.67,-2.36 -9.34,-4.72 -14.36,-7.14c-0.31,-6.21 -0.27,-12.36 0.13,-18.75c4.85,2.05 9.33,4.33 14.12,7.22c0.24,6.64 0.17,12.65 0.11,18.67z" fill="#AF7E44" id="svg_28" opacity="1"/>
  <path d="m125.11,190.99c-0.02,5.96 -0.05,11.93 -0.06,18.34c-4.81,-2.09 -9.63,-4.64 -14.76,-7.79c-0.26,-6.26 -0.22,-11.91 0.17,-17.52c5.04,2.36 9.73,4.67 14.47,6.98c0.06,0.01 0.18,-0.01 0.18,-0.01z" fill="#CCB15E" id="svg_29" opacity="1"/>
  <path d="m110.11,183.97c-0.04,5.66 -0.08,11.31 -0.14,17.42c-4.75,2.85 -9.48,5.24 -14.57,7.59c-0.4,-5.74 -0.42,-11.43 -0.43,-17.59c0.01,-0.46 0.12,-0.4 0.43,-0.55c4.99,-2.37 9.68,-4.6 14.46,-6.84c0.08,-0.02 0.25,-0.03 0.25,-0.03z" fill="#907A46" id="svg_30" opacity="1"/>
  <path d="m201.11,96.92c0.29,6.05 0.57,12.1 0.44,18.66c-5.13,2.48 -9.84,4.45 -14.55,5.95c0,-6.1 0.01,-11.74 0.33,-17.55c4.8,-2.47 9.29,-4.76 13.78,-7.06z" fill="#907A46" id="svg_31" opacity="1"/>
  <path d="m187.4,179.05c-0.38,-5.67 -0.39,-11.39 -0.4,-17.58c4.69,-2.8 9.39,-5.13 14.45,-7.48c0.42,0.82 0.53,1.64 0.54,2.47c0.21,15.69 0.2,15.69 -14.59,22.59z" fill="#8B6F3A" id="svg_32" opacity="1"/>
  <path d="m187,122c4.71,-1.97 9.42,-3.94 14.48,-5.96c0.4,5.66 0.45,11.37 0.43,17.55c-4.77,2.75 -9.47,5.04 -14.54,6.9c-0.37,-6.12 -0.37,-11.8 -0.37,-17.74c0,-0.41 0,-0.58 0,-0.75z" fill="#998546" id="svg_33" opacity="1"/>
  <path d="m158.69,75.06c-2.59,2.24 -5.47,4.33 -8.93,6.78c-0.98,3.94 -1.38,7.53 -2.08,11.27c-2.44,1.36 -4.58,2.56 -6.96,3.79c-0.42,0 -0.58,-0.03 -0.96,-0.3c-4.74,-2.71 -9.26,-5.16 -13.59,-7.89c10.1,-5.11 19.99,-9.94 29.89,-14.76c0.78,0.32 1.56,0.64 2.63,1.11z" fill="#DFAD4C" id="svg_34" opacity="1"/>
  <path d="m155.84,73.69c-9.68,5.08 -19.57,9.91 -29.9,15.02c-0.44,0.28 -0.91,0.28 -1.1,0.01c-2.1,-1.45 -4.01,-2.62 -5.93,-3.79c9.59,-4.96 19.17,-9.92 29.13,-14.96c2.78,1.1 5.18,2.28 7.8,3.72z" fill="#F8D474" id="svg_35" opacity="1"/>
  <path d="m200.92,96.64c-4.3,2.58 -8.79,4.87 -13.93,7.42c-5.74,2.82 -10.82,5.4 -16.22,7.84c-2.14,-1.41 -3.97,-2.69 -5.8,-3.97c7.29,-3.65 14.59,-7.28 21.87,-10.96c2.48,-1.25 4.9,-2.61 7.69,-3.97c2.3,1.09 4.25,2.22 6.39,3.64z" fill="#F0CB74" id="svg_36" opacity="1"/>
  <path d="m101.47,70.78c0.42,1.73 0.49,3.53 0.54,5.77c-1.89,-0.5 -3.76,-1.45 -5.97,-2.56c1.47,-1.15 3.28,-2.14 5.43,-3.21z" fill="#F0CC77" id="svg_37" opacity="1"/>
  <path d="m125.03,88.99c0,0 0.47,0 0.71,0c4.76,2.45 9.28,4.9 13.71,7.79c-4.42,2.69 -8.74,4.94 -13.4,7.36c4.94,2.84 9.43,5.43 13.71,8.27c-4.73,2.66 -9.23,5.07 -14,7.51c-0.44,0.01 -0.61,-0.01 -1,-0.28c-8.04,-4.56 -15.72,-10.34 -24.74,-2.66c-1.24,1.05 -2.63,1.92 -4.22,2.94c-0.44,0.09 -0.61,0.13 -0.99,-0.12c-5.07,-2.78 -9.95,-5.28 -14.83,-7.78c4.52,-2.45 9.03,-4.9 14.13,-7.68c5.69,-3 10.8,-5.67 16.28,-8.34c5.13,-2.33 9.88,-4.67 14.64,-7.01z" fill="#F1B363" id="svg_41" opacity="1"/>
  <path d="m79.72,112.03c5.14,2.49 10.02,4.99 15.09,8.23c0.23,6.77 0.26,12.81 0.25,19.3c-0.12,5.81 -0.19,11.16 -0.64,16.49c-5.42,-2.4 -10.48,-4.77 -15.49,-7.6c0.02,-6.42 -0.01,-12.39 0,-18.83c0.02,-6.16 0,-11.84 -0.01,-17.53c0.17,-0.02 0.35,-0.04 0.8,-0.06z" fill="#C0A25D" id="svg_42" opacity="1"/>
  <path d="m78.61,111.92c0.32,5.86 0.34,11.54 -0.03,17.64c-5.11,-1.87 -9.84,-4.16 -14.56,-6.45c0,0 -0.11,0.04 -0.15,0.01c0.01,-6.05 0.08,-12.06 0.16,-18.54c4.77,2.09 9.52,4.63 14.58,7.34z" fill="#916C3C" id="svg_43" opacity="1"/>
  <path d="m110.02,96c-5.11,2.67 -10.22,5.34 -15.69,8.09c-4.96,-2.34 -9.55,-4.75 -14.75,-7.48c5.69,-2.73 10.68,-5.13 16.24,-7.25c5.1,2.4 9.65,4.52 14.2,6.64z" fill="#8E552A" id="svg_44" opacity="1"/>
  <path d="m110.39,96c-4.92,-2.12 -9.47,-4.24 -14.21,-6.64c4.24,-2.62 8.67,-4.95 13.47,-7.32c2.81,0.93 5.26,1.91 8.07,2.89c0.37,0.01 0.78,0.04 0.99,0.02c2.12,1.15 4.03,2.32 6.13,3.77c-4.57,2.61 -9.32,4.95 -14.45,7.28z" fill="#DB9E55" id="svg_45" opacity="1"/>
  <path d="m171.09,112.04c5.08,-2.58 10.16,-5.16 15.59,-7.81c0.33,5.56 0.32,11.2 0.32,17.3c0,0.64 0,0.81 -0.32,1.36c-5.45,2.98 -10.58,5.56 -15.7,8.14c-4.86,2.47 -9.72,4.93 -15.15,7.71c-5.66,2.63 -10.74,4.95 -15.83,6.8c0,-6.17 0,-11.87 0,-17.78c0,-0.22 0.03,-0.64 0.38,-0.72c4.78,-2.39 9.2,-4.71 13.99,-7.08c5.81,-2.67 11.26,-5.29 16.72,-7.92z" fill="#968146" id="svg_46" opacity="1"/>
  <path d="m140,146.01c5.09,-2.32 10.17,-4.64 15.63,-7c0.36,5.64 0.36,11.33 0.35,17.47c-0.01,0.47 0,0.51 -0.31,0.65c-5.42,2.71 -10.52,5.26 -15.64,7.36c-0.02,-6.14 -0.03,-11.81 -0.03,-17.73c0,-0.25 0,-0.75 0,-0.75z" fill="#6D512D" id="svg_47" opacity="1"/>
  <path d="m170.99,131.5c5.11,-3.05 10.24,-5.63 15.69,-8.36c0.32,5.55 0.32,11.23 0.32,17.39c-4.97,3.16 -9.94,5.86 -16.01,9.15c0,-6.72 0,-12.22 0,-18.18z" fill="#916B3B" id="svg_48" opacity="1"/>
  <path d="m64.05,175.27c-0.15,-5.95 -0.1,-11.61 0.33,-17.72c5.49,2.17 10.61,4.8 15.69,7.89c-0.08,6.15 -0.11,11.84 -0.15,17.52c-5.22,-2.46 -10.44,-4.93 -15.87,-7.69z" fill="#734522" id="svg_49" opacity="1"/>
  <path d="m80.25,183.1c-0.29,-5.82 -0.26,-11.51 0.17,-17.61c5.15,1.92 9.92,4.26 14.65,7.06c-0.02,6.45 0,12.44 0.02,18.44c0,0 -0.11,-0.06 -0.17,-0.07c-4.82,-2.57 -9.59,-5.12 -14.67,-7.82z" fill="#C2A77B" id="svg_50" opacity="1"/>
  <path d="m147.98,92.96c0.4,-3.59 0.8,-7.18 1.58,-10.84c4.85,2.23 9.31,4.54 14.13,6.9c0.35,6.02 0.33,11.97 -0.03,18.4c-2.84,-0.54 -5.32,-1.56 -7.97,-2.84c-2.76,-1.99 -5.35,-3.71 -7.63,-5.66c0.18,-2.14 0.05,-4.05 -0.08,-5.96z" fill="#C18F4F" id="svg_51" opacity="1"/>
  <path d="m155.86,104.85c2.48,1.01 4.96,2.03 7.81,3.03c0.37,-0.01 0.83,0.07 1.06,0.06c2.07,1.27 3.9,2.55 6.04,3.96c-5.14,2.77 -10.59,5.39 -16.55,7.76c-4.73,-2.68 -8.94,-5.09 -12.84,-7.68c5.03,-2.49 9.75,-4.81 14.48,-7.13z" fill="#FFDD74" id="svg_52" opacity="1"/>
  <path d="m140.04,164.95c5.11,-2.56 10.21,-5.11 15.64,-7.8c0.33,5.89 0.32,11.9 0.32,18.38c-10.06,5.44 -20.13,10.41 -30.54,15.42c-0.35,0.04 -0.47,0.06 -0.48,-0.41c0.07,-6.52 0.16,-12.57 0.58,-18.63c5.06,-2.34 9.77,-4.65 14.48,-6.96z" fill="#998546" id="svg_53" opacity="1"/>
  <path d="m95.1,172.09c-4.76,-2.34 -9.53,-4.68 -14.64,-7.07c-5.47,-2.67 -10.59,-5.3 -16.06,-7.94c-4.9,-2.52 -9.43,-5.04 -14.91,-8.09c5.1,-2.68 9.61,-5.06 14.29,-7.73c0.18,-0.29 0.21,-0.31 0.56,-0.18c5.08,2.69 9.81,5.26 14.54,7.83c5.06,2.37 10.12,4.74 15.72,7.45c5.46,2.75 10.37,5.17 15.33,7.79c0.04,0.21 0.1,0.62 0.05,0.7c-0.05,0.08 -0.1,0.26 -0.45,0.24c-5.05,2.32 -9.74,4.66 -14.43,7z" fill="#F0CB74" id="svg_54" opacity="1"/>
  <path d="m78.93,148.45c-4.78,-2.11 -9.51,-4.68 -14.58,-7.38c-0.34,-5.77 -0.34,-11.41 -0.34,-17.5c4.73,1.83 9.46,4.12 14.53,6.46c0.38,6.03 0.41,12 0.39,18.42z" fill="#195928" id="svg_55" opacity="1"/>
  <path d="m125.22,171.93c-0.08,6.04 -0.17,12.09 -0.3,18.6c-4.73,-1.84 -9.42,-4.15 -14.46,-6.51c-0.35,-0.05 -0.52,-0.04 -0.53,-0.49c-0.02,-6.44 -0.04,-12.43 -0.05,-18.42c0,0 0.05,-0.18 0.45,-0.15c5.11,2.36 9.83,4.69 14.63,6.97c0.08,-0.03 0.26,0 0.26,0z" fill="#C2A77B" id="svg_56" opacity="1"/>
  <path d="m109.53,165.09c0.36,6.01 0.38,12 0.32,18.46c-4.77,2.69 -9.46,4.92 -14.45,7.29c-0.33,-5.85 -0.35,-11.84 -0.33,-18.29c4.72,-2.8 9.41,-5.14 14.46,-7.46z" fill="#835F33" id="svg_57" opacity="1"/>
  <path d="m155.69,104.58c-4.56,2.59 -9.28,4.91 -14.59,7.36c-0.76,0.16 -0.94,0.19 -1.12,0.22c-4.5,-2.59 -8.99,-5.18 -13.93,-8.02c4.66,-2.42 8.98,-4.67 13.61,-7.11c0.48,-0.16 0.64,-0.13 1.38,0.05c2.62,0.79 4.67,1.43 6.71,2.07c2.59,1.72 5.18,3.44 7.94,5.43z" fill="#8E552A" id="svg_58" opacity="1"/>
  <path d="m148.06,98.92c-2.35,-0.41 -4.4,-1.05 -6.77,-1.86c1.81,-1.39 3.95,-2.59 6.39,-3.95c0.43,1.76 0.56,3.67 0.38,5.81z" fill="#B6884B" id="svg_59" opacity="1"/>
  <path d="m95.11,139.1c-0.04,-6.03 -0.07,-12.07 -0.1,-18.56c0.18,-0.49 0.35,-0.53 1.09,-0.44c4.99,2.43 9.42,4.73 13.87,7.5c0,6.14 -0.02,11.82 -0.39,17.45c-5.07,-2.03 -9.77,-3.99 -14.47,-5.95z" fill="#916C3C" id="svg_60" opacity="1"/>
  <path d="m109.96,127.14c-4.44,-2.31 -8.87,-4.61 -13.6,-7.1c1.03,-1.14 2.42,-2.01 3.66,-3.06c9.02,-7.68 16.7,-1.9 24.43,2.82c-4.54,2.73 -8.98,5.02 -13.69,7.29c-0.45,0 -0.63,0.03 -0.8,0.05z" fill="#F0CB74" id="svg_61" opacity="1"/>
  <path d="m139.76,112.41c0.4,-0.28 0.58,-0.31 1.04,-0.29c4.48,2.45 8.69,4.86 13.06,7.58c-4.28,2.63 -8.7,4.95 -13.8,7.18c-5.12,-2.39 -9.58,-4.68 -14.03,-6.98c4.5,-2.42 9,-4.83 13.73,-7.49z" fill="#F0CB74" id="svg_62" opacity="1"/>
  <path d="m125.76,119.92c4.72,2.28 9.18,4.57 13.95,7.03c0.32,0.17 0.29,0.59 -0.07,0.85c-5.12,2.58 -9.87,4.91 -14.82,6.95c-4.73,-2.73 -9.26,-5.18 -13.79,-7.63c4.44,-2.3 8.88,-4.59 13.63,-7.05c0.49,-0.16 0.66,-0.14 1.1,-0.15z" fill="#B5874B" id="svg_63" opacity="1"/>
  <path d="m95.06,139.56c4.75,1.5 9.45,3.46 14.56,5.72c0.4,0.3 0.53,0.76 0.47,1.22c-0.11,6.13 -0.16,11.79 -0.2,17.45c-4.92,-2.42 -9.83,-4.84 -14.92,-7.57c-0.1,-5.66 -0.03,-11.01 0.09,-16.82z" fill="#195928" id="svg_64" opacity="1"/>
  <path d="m125.02,135.04c4.75,-2.33 9.5,-4.66 14.62,-7.03c0.36,5.66 0.36,11.36 0.36,17.53c0,0.47 0,0.97 -0.36,1.25c-5.07,2.59 -9.77,4.89 -14.55,6.98c-0.07,-0.22 -0.17,-0.66 -0.15,-1.14c0.05,-6.18 0.06,-11.89 0.08,-17.59z" fill="#845F33" id="svg_65" opacity="1"/>
  <path d="m125.16,153.98c4.71,-2.3 9.41,-4.6 14.47,-6.94c0.37,5.64 0.38,11.31 0.4,17.45c-4.7,2.77 -9.41,5.08 -14.47,7.42c-0.34,0.02 -0.52,-0.01 -0.55,-0.44c0.03,-6.11 0.09,-11.8 0.15,-17.49z" fill="#916B3B" id="svg_66" opacity="1"/>
  <path d="m125.09,153.77c0.01,5.9 -0.05,11.59 -0.16,17.74c-4.77,-1.86 -9.49,-4.19 -14.56,-6.63c-0.34,-0.11 -0.4,-0.52 -0.44,-0.73c0,-5.86 0.05,-11.52 0.51,-17.64c5.1,1.9 9.79,4.25 14.48,6.6c0,0 0.1,0.44 0.17,0.66z" fill="#CCCCCA" id="svg_67" opacity="1"/>
  <path d="m124.94,152.63c-4.71,-1.87 -9.4,-4.22 -14.44,-6.58c-0.35,-0.01 -0.48,-0.47 -0.53,-0.7c-0.02,-5.93 0,-11.61 0,-17.75c0.16,-0.48 0.34,-0.51 0.79,-0.51c4.8,2.48 9.33,4.93 14.06,7.66c0.18,5.99 0.17,11.7 0.12,17.88z" fill="#AF7E44" id="svg_68" opacity="1"/>
 </g>
</svg>