<?xml version="1.0" encoding="utf-8"?>
<!DOCTYPE svg PUBLIC "-//W3C//DTD SVG 20010904//EN" "http://www.w3.org/TR/2001/REC-SVG-20010904/DTD/svg10.dtd">
<svg version="1.0" xmlns="http://www.w3.org/2000/svg" width="702pt" height="252pt" viewBox="0 0 702 252" style="" preserveAspectRatio="xMidYMid meet">
<g fill="#FFFFFFFF" stroke="#FFFFFFFF">
<path d="M 114.000 44.097 C 105.475 48.425 97.713 52.923 96.750 54.094 C 95.672 55.404 95.000 57.908 95.000 60.611 L 95.000 65.001 69.750 77.542 C 55.863 84.440 43.825 90.755 43.000 91.577 C 41.708 92.864 41.500 99.770 41.500 141.382 C 41.500 180.648 41.755 189.999 42.860 191.332 C 44.832 193.707 91.772 217.000 94.588 217.000 C 95.894 217.000 99.863 215.570 103.408 213.822 L 109.853 210.643 116.004 213.922 C 119.387 215.725 123.583 217.199 125.328 217.198 C 130.215 217.196 207.108 178.294 208.735 175.000 C 210.249 171.936 210.546 97.565 209.060 93.657 C 208.542 92.297 206.742 90.370 205.060 89.376 C 202.038 87.591 202.000 87.465 202.000 79.284 C 202.000 72.516 201.657 70.657 200.124 69.124 C 197.127 66.127 182.059 59.000 178.720 59.000 C 177.032 59.000 172.337 60.830 168.201 63.099 C 161.849 66.586 160.378 67.038 158.366 66.121 C 156.154 65.113 156.000 64.502 156.000 56.713 C 156.000 51.612 155.515 47.731 154.750 46.701 C 152.767 44.034 135.861 35.991 132.500 36.116 C 130.850 36.177 122.525 39.769 114.000 44.097 M 147.784 60.287 L 148.068 69.640 154.226 72.718 L 160.383 75.797 169.666 71.185 L 178.948 66.574 186.974 70.487 L 195.000 74.400 195.000 84.015 L 195.000 93.630 198.500 95.299 L 202.000 96.968 202.000 134.373 L 202.000 171.778 163.374 190.908 L 124.748 210.038 117.322 206.032 L 109.896 202.027 102.973 205.513 C 99.165 207.431 95.610 209.000 95.073 209.000 C 94.536 209.000 83.949 204.011 71.548 197.914 L 49.000 186.828 49.000 160.914 C 49.000 146.661 49.174 135.000 49.388 135.000 C 50.248 135.000 63.982 141.297 71.250 145.024 L 79.000 148.998 79.000 139.634 L 79.000 130.269 63.966 122.917 L 48.933 115.566 49.216 106.033 L 49.500 96.500 75.741 83.500 L 101.982 70.500 101.991 64.875 L 102.000 59.250 117.740 51.224 L 133.480 43.197 140.490 47.065 L 147.500 50.934 147.784 60.287 "/></g>
<g fill="#FFFFFFFF" stroke="#FFFFFFFF">
<path d="M 352.616 142.057 C 351.177 145.939 350.000 149.539 350.000 150.057 C 350.000 150.588 354.591 151.000 360.500 151.000 L 371.000 151.000 371.000 171.500 L 371.000 192.000 379.000 192.000 L 387.000 192.000 387.000 171.542 L 387.000 151.084 394.669 150.792 L 402.338 150.500 404.815 143.729 C 406.177 140.005 407.560 137.226 407.887 137.554 C 408.215 137.882 412.767 150.154 418.003 164.825 L 427.523 191.500 435.015 191.788 L 442.508 192.075 445.378 183.996 C 446.957 179.552 448.437 176.104 448.666 176.333 C 448.896 176.563 450.357 180.069 451.913 184.125 L 454.742 191.500 462.121 191.773 L 469.500 192.045 479.602 163.773 L 489.704 135.500 481.602 135.225 L 473.500 134.950 467.602 150.975 C 464.358 159.789 461.423 167.000 461.079 167.000 C 460.735 167.000 457.779 159.811 454.509 151.025 L 448.565 135.050 442.625 151.025 C 439.358 159.811 436.418 166.994 436.093 166.986 C 435.767 166.979 432.807 159.779 429.516 150.986 L 423.532 135.000 389.382 135.000 L 355.232 135.000 352.616 142.057 "/></g>
<g fill="#835F33FF" stroke="#835F33FF">
<path d="M 194.250 100.515 L 187.000 103.875 187.000 113.357 L 187.000 122.839 172.029 130.420 C 163.795 134.589 156.820 138.000 156.529 138.000 C 156.238 138.000 156.000 133.913 156.000 128.917 C 156.000 123.921 155.663 119.993 155.250 120.187 C 154.838 120.382 147.863 123.762 139.750 127.699 L 125.000 134.856 125.000 153.428 C 125.000 163.643 125.285 172.000 125.634 172.000 C 125.983 172.000 132.974 168.616 141.170 164.479 L 156.073 156.959 155.786 166.729 L 155.500 176.500 140.250 183.947 L 125.000 191.395 125.000 200.702 L 125.000 210.008 148.000 198.500 L 171.000 186.992 171.000 177.715 L 171.000 168.439 178.517 164.719 C 182.651 162.674 186.251 161.000 186.517 161.000 C 186.782 161.000 187.000 165.050 187.000 170.000 C 187.000 174.950 187.273 179.000 187.607 179.000 C 187.941 179.000 191.313 177.313 195.100 175.250 L 201.987 171.500 201.993 152.721 L 202.000 133.941 195.349 137.471 C 191.691 139.412 188.316 141.000 187.849 141.000 C 187.382 141.000 187.000 136.946 187.000 131.992 L 187.000 122.984 194.533 119.256 L 202.067 115.528 201.783 106.341 L 201.500 97.154 194.250 100.515 "/></g>
<g fill="#F0CB74FF" stroke="#F0CB74FF">
<path d="M 133.793 77.254 C 125.704 81.239 119.066 84.756 119.043 85.069 C 119.019 85.381 120.425 86.312 122.168 87.137 L 125.335 88.637 116.918 93.156 C 112.288 95.641 105.301 99.135 101.390 100.920 L 94.281 104.167 87.038 100.519 C 83.054 98.513 79.954 96.726 80.148 96.549 C 80.341 96.371 87.150 92.874 95.278 88.777 L 110.056 81.329 106.028 79.513 C 102.488 77.916 102.000 77.291 102.000 74.348 C 102.000 72.507 101.744 71.000 101.431 71.000 C 100.134 71.000 50.004 96.183 50.047 96.813 C 50.074 97.191 63.623 104.204 80.157 112.397 L 110.218 127.294 117.897 123.550 L 125.576 119.806 133.063 123.511 L 140.551 127.216 170.727 112.358 C 187.324 104.186 200.925 97.246 200.952 96.935 C 200.978 96.625 199.538 95.675 197.750 94.825 C 194.527 93.292 194.372 93.340 179.011 100.683 L 163.521 108.088 159.709 106.369 L 155.897 104.650 148.198 108.368 L 140.500 112.086 133.005 108.105 L 125.509 104.125 132.254 100.969 C 135.963 99.233 139.217 97.457 139.486 97.023 C 139.754 96.589 136.751 94.540 132.812 92.470 L 125.650 88.707 139.690 81.977 C 147.411 78.275 154.030 74.760 154.397 74.166 C 154.913 73.332 150.409 69.983 148.800 70.004 C 148.635 70.006 141.882 73.268 133.793 77.254 "/></g>
<g fill="#FFFFFFFF" stroke="#FFFFFFFF">
<path d="M 510.332 133.900 C 502.434 135.929 495.158 142.041 490.709 150.384 C 487.722 155.987 487.539 170.699 490.391 176.000 C 494.162 183.009 498.104 186.926 504.608 190.128 C 517.270 196.361 531.854 193.653 540.889 183.388 C 545.910 177.685 548.006 171.530 547.978 162.572 C 547.942 150.848 542.260 141.778 531.500 136.266 C 526.107 133.503 516.193 132.395 510.332 133.900 M 526.662 153.106 C 532.877 158.836 533.190 166.744 527.430 172.504 C 523.531 176.403 519.294 177.582 514.668 176.056 C 503.723 172.443 501.699 157.931 511.299 151.900 C 515.639 149.173 523.024 149.753 526.662 153.106 "/></g>
<g fill="#FFFFFFFF" stroke="#FFFFFFFF">
<path d="M 524.293 60.388 C 511.718 64.499 503.641 75.969 503.725 89.595 C 503.799 101.610 509.883 111.349 520.584 116.585 C 527.884 120.156 538.112 120.332 545.770 117.018 C 553.101 113.845 560.469 105.635 562.616 98.249 C 566.781 83.921 560.331 68.734 547.393 62.404 C 540.804 59.180 530.689 58.298 524.293 60.388 M 540.701 77.960 C 550.314 83.821 548.269 98.446 537.332 102.056 C 528.324 105.028 518.479 96.203 520.506 86.973 C 521.283 83.434 525.445 78.172 528.418 76.969 C 532.034 75.506 537.386 75.938 540.701 77.960 "/></g>
<g fill="#FFFFFFFF" stroke="#FFFFFFFF">
<path d="M 308.293 60.388 C 295.718 64.499 287.641 75.969 287.725 89.595 C 287.799 101.610 293.883 111.349 304.584 116.585 C 311.884 120.156 322.112 120.332 329.770 117.018 C 337.101 113.845 344.469 105.635 346.616 98.249 C 350.781 83.921 344.331 68.734 331.393 62.404 C 324.804 59.180 314.689 58.298 308.293 60.388 M 324.701 77.960 C 334.314 83.821 332.269 98.446 321.332 102.056 C 312.324 105.028 302.479 96.203 304.506 86.973 C 305.283 83.434 309.445 78.172 312.418 76.969 C 316.034 75.506 321.386 75.938 324.701 77.960 "/></g>
<g fill="#FFFFFFFF" stroke="#FFFFFFFF">
<path d="M 242.000 163.460 L 242.000 192.000 249.973 192.000 L 257.945 192.000 258.223 177.949 L 258.500 163.899 268.500 177.923 L 278.500 191.948 286.750 191.974 L 295.000 192.000 295.000 163.500 L 295.000 135.000 287.027 135.000 L 279.055 135.000 278.777 149.250 L 278.500 163.500 268.445 149.500 L 258.391 135.500 250.195 135.210 L 242.000 134.919 242.000 163.460 "/></g>
<g fill="#FFFFFFFF" stroke="#FFFFFFFF">
<path d="M 555.522 136.194 C 555.270 136.912 553.980 140.538 552.656 144.250 L 550.248 151.000 570.589 151.000 C 590.126 151.000 590.973 151.082 592.036 153.067 C 592.896 154.675 592.788 155.675 591.548 157.567 C 589.973 159.971 589.768 160.000 574.477 160.000 L 559.000 160.000 559.000 176.000 L 559.000 192.000 567.000 192.000 L 575.000 192.000 575.000 184.500 C 575.000 180.375 575.349 177.000 575.775 177.000 C 576.201 177.000 579.903 180.375 584.000 184.500 L 591.450 192.000 601.953 192.000 L 612.456 192.000 604.105 183.605 L 595.754 175.211 599.397 173.482 C 603.995 171.300 606.628 167.623 608.010 161.454 C 610.181 151.766 607.346 142.537 600.680 137.592 C 598.065 135.652 596.336 135.478 576.920 135.194 C 560.374 134.952 555.884 135.162 555.522 136.194 "/></g>
<g fill="#FFFFFFFF" stroke="#FFFFFFFF">
<path d="M 302.000 163.500 L 302.000 192.000 322.866 192.000 L 343.732 192.000 346.371 184.750 C 347.822 180.763 349.007 177.163 349.005 176.750 C 349.002 176.338 342.025 176.000 333.500 176.000 C 318.667 176.000 318.000 175.914 318.000 174.000 C 318.000 172.211 318.667 172.000 324.315 172.000 L 330.630 172.000 332.978 165.250 C 334.269 161.538 335.519 157.956 335.755 157.290 C 336.064 156.416 333.730 156.000 327.342 155.790 C 319.036 155.518 318.481 155.364 318.180 153.250 C 317.863 151.017 317.958 151.000 330.689 151.000 L 343.518 151.000 345.913 144.250 C 347.230 140.538 348.511 136.938 348.761 136.250 C 349.115 135.273 344.068 135.000 325.607 135.000 L 302.000 135.000 302.000 163.500 "/></g>
<g fill="#FFFFFFFF" stroke="#FFFFFFFF">
<path d="M 412.000 89.520 L 412.000 118.041 432.620 117.770 L 453.239 117.500 455.974 109.750 L 458.709 102.000 443.354 102.000 C 428.667 102.000 428.000 101.913 428.000 100.000 C 428.000 98.227 428.667 98.000 433.884 98.000 L 439.768 98.000 442.384 90.943 C 443.823 87.061 445.000 83.461 445.000 82.943 C 445.000 82.424 441.175 82.000 436.500 82.000 C 428.100 82.000 428.000 81.971 428.000 79.500 L 428.000 77.000 440.366 77.000 L 452.732 77.000 455.371 69.750 C 456.822 65.763 458.007 62.163 458.005 61.750 C 458.002 61.338 447.650 61.000 435.000 61.000 L 412.000 61.000 412.000 89.520 "/></g>
<g fill="#FFFFFFFF" stroke="#FFFFFFFF">
<path d="M 617.000 163.500 L 617.000 192.000 624.969 192.000 L 632.938 192.000 633.219 179.944 L 633.500 167.888 642.461 179.944 L 651.423 192.000 660.211 192.000 C 665.045 192.000 669.000 191.778 669.000 191.508 C 669.000 191.237 664.917 185.337 659.926 178.398 C 654.936 171.458 650.621 165.177 650.339 164.440 C 650.056 163.704 654.139 157.025 659.412 149.598 C 664.686 142.171 669.000 135.848 669.000 135.547 C 669.000 135.246 665.045 135.000 660.211 135.000 L 651.423 135.000 642.461 147.056 L 633.500 159.112 633.219 147.056 L 632.938 135.000 624.969 135.000 L 617.000 135.000 617.000 163.500 "/></g>
<g fill="#FFFFFFFF" stroke="#FFFFFFFF">
<path d="M 370.994 61.934 C 366.188 63.396 362.325 65.898 358.731 69.876 C 352.504 76.769 351.507 79.477 351.511 89.500 C 351.515 99.808 353.124 103.892 359.665 110.195 C 366.503 116.785 370.549 117.953 386.616 117.978 L 400.732 118.000 403.371 110.750 C 404.822 106.763 406.007 103.163 406.005 102.750 C 406.002 102.338 399.018 102.000 390.485 102.000 L 374.971 102.000 371.235 98.577 C 367.780 95.411 367.500 94.737 367.500 89.596 C 367.500 84.654 367.862 83.676 370.766 80.769 L 374.033 77.500 387.960 77.175 L 401.887 76.851 404.090 70.175 C 405.301 66.504 406.500 62.938 406.753 62.250 C 407.111 61.279 403.450 61.019 390.357 61.086 C 381.086 61.133 372.372 61.515 370.994 61.934 "/></g>
<g fill="#C0A25DFF" stroke="#C0A25DFF">
<path d="M 49.000 160.760 L 49.000 186.521 71.506 197.760 C 83.884 203.942 94.234 209.000 94.506 209.000 C 94.778 209.000 95.000 200.681 95.000 190.514 L 95.000 172.027 87.890 168.514 C 83.980 166.581 80.622 165.000 80.428 165.000 C 80.234 165.000 79.946 169.050 79.788 173.999 L 79.500 182.999 71.750 179.333 L 64.000 175.667 64.000 166.070 L 64.000 156.474 57.000 153.071 C 53.150 151.199 50.000 149.380 50.000 149.027 C 50.000 148.675 53.151 146.862 57.002 144.999 L 64.005 141.611 56.868 138.306 C 52.942 136.488 49.566 135.000 49.365 135.000 C 49.164 135.000 49.000 146.592 49.000 160.760 "/></g>
<g fill="#FFFFFFFF" stroke="#FFFFFFFF">
<path d="M 570.118 63.250 C 569.660 64.488 568.327 68.088 567.157 71.250 L 565.028 77.000 576.014 77.000 L 587.000 77.000 587.000 97.500 L 587.000 118.000 595.000 118.000 L 603.000 118.000 603.000 97.542 L 603.000 77.084 610.622 76.792 L 618.244 76.500 620.976 68.750 L 623.709 61.000 597.330 61.000 L 570.950 61.000 570.118 63.250 "/></g>
<g fill="#FFFFFFFF" stroke="#FFFFFFFF">
<path d="M 463.000 89.500 L 463.000 118.000 479.753 118.000 L 496.507 118.000 498.688 111.750 C 499.888 108.313 501.172 104.713 501.542 103.750 C 502.158 102.145 501.251 102.000 490.607 102.000 L 479.000 102.000 479.000 81.500 L 479.000 61.000 471.000 61.000 L 463.000 61.000 463.000 89.500 "/></g>
<g fill="#F0CB74FF" stroke="#F0CB74FF">
<path d="M 57.127 144.913 C 53.207 146.851 50.000 148.692 50.000 149.004 C 50.000 149.316 60.123 154.624 72.496 160.800 L 94.992 172.028 102.499 168.251 L 110.006 164.474 87.130 152.931 L 64.255 141.388 57.127 144.913 "/></g>
<g fill="#998546FF" stroke="#998546FF">
<path d="M 140.264 164.887 L 125.028 172.500 125.014 181.750 C 125.006 186.838 125.338 190.969 125.750 190.932 C 126.163 190.895 133.025 187.632 141.000 183.682 L 155.500 176.500 155.500 166.887 L 155.500 157.275 140.264 164.887 "/></g>
<g fill="#C0A25DFF" stroke="#C0A25DFF">
<path d="M 79.000 130.597 L 79.000 149.130 86.434 152.565 C 90.523 154.454 94.123 156.000 94.434 156.000 C 94.746 156.000 95.000 147.906 95.000 138.014 L 95.000 120.029 88.750 116.779 C 85.313 114.992 81.713 113.200 80.750 112.797 C 79.120 112.115 79.000 113.334 79.000 130.597 "/></g>
<g fill="#998546FF" stroke="#998546FF">
<path d="M 179.250 81.764 L 164.000 89.188 164.000 98.578 L 164.000 107.967 179.526 100.234 L 195.052 92.500 194.776 83.420 L 194.500 74.339 179.250 81.764 "/></g>
<g fill="#998546FF" stroke="#998546FF">
<path d="M 171.500 112.126 L 156.500 119.832 156.212 128.916 C 156.054 133.912 156.180 138.000 156.492 138.000 C 156.803 138.000 163.811 134.581 172.064 130.402 L 187.070 122.804 186.785 113.612 L 186.500 104.420 171.500 112.126 "/></g>
<g fill="#835F33FF" stroke="#835F33FF">
<path d="M 101.750 168.563 L 95.000 172.028 95.000 190.514 C 95.000 200.681 95.236 209.000 95.525 209.000 C 95.814 209.000 99.189 207.419 103.025 205.487 L 110.000 201.975 110.000 183.487 C 110.000 173.319 109.663 165.022 109.250 165.049 C 108.838 165.076 105.463 166.657 101.750 168.563 "/></g>
<g fill="#C0A25DFF" stroke="#C0A25DFF">
<path d="M 110.000 183.404 L 110.000 201.975 116.975 205.487 C 120.811 207.419 124.186 209.000 124.475 209.000 C 124.764 209.000 125.000 200.647 125.000 190.437 L 125.000 171.875 118.250 168.705 C 114.538 166.961 111.163 165.377 110.750 165.184 C 110.338 164.991 110.000 173.190 110.000 183.404 "/></g>
<g fill="#FFFFFFFF" stroke="#FFFFFFFF">
<path d="M 95.000 147.797 L 95.000 156.729 102.250 160.410 C 106.238 162.434 112.875 165.823 117.000 167.940 L 124.500 171.790 124.764 162.645 L 125.028 153.500 112.264 146.862 C 93.633 137.173 95.000 137.099 95.000 147.797 "/></g>
<g fill="#C0A25DFF" stroke="#C0A25DFF">
<path d="M 140.128 81.526 L 125.755 88.702 133.128 92.706 L 140.500 96.710 144.210 94.855 C 146.251 93.835 148.163 93.000 148.460 93.000 C 148.757 93.000 149.003 94.688 149.007 96.750 C 149.013 100.355 149.279 100.645 155.900 104.250 C 159.687 106.313 163.059 108.000 163.393 108.000 C 163.727 108.000 164.000 103.824 164.000 98.719 L 164.000 89.439 156.260 85.609 L 148.521 81.779 153.510 79.268 C 159.713 76.146 159.765 76.095 157.971 74.961 C 155.886 73.643 156.000 73.601 140.128 81.526 "/></g>
<g fill="#835F33FF" stroke="#835F33FF">
<path d="M 132.250 59.291 L 118.000 66.468 118.000 75.740 L 118.000 85.013 133.000 77.500 L 148.000 69.987 148.000 60.994 C 148.000 56.047 147.663 52.026 147.250 52.058 C 146.838 52.089 140.088 55.344 132.250 59.291 "/></g>
<g fill="#C0A25DFF" stroke="#C0A25DFF">
<path d="M 103.000 62.361 C 103.000 64.201 102.721 68.380 102.379 71.647 L 101.758 77.587 105.995 79.498 L 110.231 81.408 103.115 84.780 C 99.202 86.635 96.000 88.470 96.000 88.857 C 96.000 89.244 99.263 91.164 103.250 93.123 L 110.500 96.685 117.888 92.685 L 125.276 88.685 121.638 86.819 L 118.000 84.952 118.000 75.695 L 118.000 66.439 110.500 62.727 L 103.000 59.016 103.000 62.361 "/></g>
<g fill="#998546FF" stroke="#998546FF">
<path d="M 117.250 123.778 L 110.000 127.437 110.000 136.595 L 110.000 145.752 116.896 149.376 C 120.689 151.369 124.064 153.000 124.396 153.000 C 124.728 153.000 125.000 148.955 125.000 144.012 L 125.000 135.024 132.724 131.138 L 140.449 127.251 133.249 123.626 C 129.290 121.631 125.701 120.027 125.275 120.059 C 124.849 120.092 121.238 121.765 117.250 123.778 "/></g>
<g fill="#F0CB74FF" stroke="#F0CB74FF">
<path d="M 117.705 51.240 L 101.909 59.296 102.265 64.898 L 102.622 70.500 102.811 64.737 L 103.000 58.975 110.133 62.567 L 117.266 66.159 132.628 58.875 C 141.078 54.869 147.656 51.303 147.246 50.952 C 146.835 50.600 143.575 48.709 140.000 46.748 L 133.500 43.185 117.705 51.240 "/></g>
<g fill="#F0CB74FF" stroke="#F0CB74FF">
<path d="M 168.750 71.561 C 163.938 74.014 159.993 75.679 159.985 75.261 C 159.976 74.842 159.639 75.003 159.235 75.617 C 158.831 76.231 156.255 77.869 153.510 79.256 L 148.521 81.779 156.050 85.505 L 163.579 89.230 179.040 81.778 L 194.500 74.326 187.275 70.663 C 183.301 68.648 179.476 67.023 178.775 67.051 C 178.074 67.078 173.563 69.108 168.750 71.561 "/></g>
<g fill="#835F33FF" stroke="#835F33FF">
<path d="M 64.000 166.333 L 64.000 175.667 71.750 179.333 L 79.500 182.998 79.783 173.735 L 80.067 164.472 72.517 160.736 C 68.364 158.681 64.749 157.000 64.483 157.000 C 64.218 157.000 64.000 161.200 64.000 166.333 "/></g>
<g fill="#998546FF" stroke="#998546FF">
<path d="M 178.250 164.778 L 171.000 168.437 171.000 177.634 L 171.000 186.831 179.000 183.197 L 187.000 179.563 187.000 170.281 C 187.000 165.177 186.663 161.027 186.250 161.059 C 185.838 161.092 182.238 162.765 178.250 164.778 "/></g>
<g fill="#998546FF" stroke="#998546FF">
<path d="M 49.000 106.332 L 49.000 115.561 56.500 119.273 L 64.000 122.984 64.000 113.512 L 64.000 104.041 60.250 102.133 C 58.188 101.084 54.813 99.523 52.750 98.664 L 49.000 97.102 49.000 106.332 "/></g>
<g fill="#998546FF" stroke="#998546FF">
<path d="M 193.750 119.563 L 187.000 123.028 187.000 132.081 C 187.000 142.498 186.764 142.385 196.750 136.764 L 202.000 133.809 202.000 124.905 C 202.000 120.007 201.663 116.022 201.250 116.049 C 200.838 116.076 197.463 117.657 193.750 119.563 "/></g>
<g fill="#835F33FF" stroke="#835F33FF">
<path d="M 64.000 113.424 L 64.000 122.916 71.190 126.458 C 75.144 128.406 78.536 130.000 78.728 130.000 C 78.919 130.000 78.946 125.935 78.788 120.967 L 78.500 111.933 71.250 107.933 L 64.000 103.932 64.000 113.424 "/></g>
<g fill="#835F33FF" stroke="#835F33FF">
<path d="M 95.000 129.194 L 95.000 138.555 101.699 141.527 C 105.383 143.162 108.758 144.650 109.199 144.833 C 109.639 145.017 110.000 141.122 110.000 136.178 L 110.000 127.189 103.250 123.889 C 99.538 122.074 96.163 120.420 95.750 120.212 C 95.338 120.004 95.000 124.046 95.000 129.194 "/></g>
<g fill="#835F33FF" stroke="#835F33FF">
<path d="M 132.540 100.678 L 125.580 104.162 133.040 108.134 L 140.500 112.106 148.474 108.198 L 156.448 104.291 148.869 100.645 C 144.701 98.640 140.887 97.044 140.395 97.097 C 139.903 97.151 136.368 98.762 132.540 100.678 "/></g>
<g fill="#835F33FF" stroke="#835F33FF">
<path d="M 87.004 92.936 L 79.508 96.773 87.004 100.459 L 94.500 104.145 102.465 100.443 L 110.429 96.741 102.965 92.920 C 98.859 90.818 95.275 89.099 95.000 89.099 C 94.725 89.099 91.127 90.826 87.004 92.936 "/></g>
<g fill="#998546FF" stroke="#998546FF">
<path d="M 144.000 94.968 L 140.500 96.853 144.218 98.427 C 149.105 100.495 149.000 100.537 149.000 96.500 C 149.000 92.488 148.750 92.411 144.000 94.968 "/></g>
</svg>
