<?xml version="1.0"?>
<svg width="700" height="250" xmlns="http://www.w3.org/2000/svg" xmlns:svg="http://www.w3.org/2000/svg" version="1.1">

 <g class="layer">
  <title>Layer 1</title>
  <path d="m113.11,42.93l-15.39,7.7l-1.86,2.29l-1.86,2.3l0,4.39l0,4.38l-25.75,12.81l-25.74,12.8l-1.24,2.45l-1.24,2.45l0,46l0,46l1.25,2.5l1.25,2.5l23.98,12.19l23.99,12.19l3.28,0.06l3.28,0.06l5.9,-2.98l5.91,-2.98l7.59,3.6l7.6,3.61l4.22,-1.67l4.22,-1.67l37,-18.71l37,-18.7l1.24,-2.5l1.23,-2.5l0.02,-38.19l0.01,-38.18l-0.94,-2.47l-0.94,-2.48l-3.06,-1.8l-3.06,-1.81l0,-8.29l0,-8.28l-1.77,-1.77l-1.76,-1.76l-8.14,-4.24l-8.14,-4.23l-3.12,0l-3.11,0l-8,4.02l-8.01,4.03l-1.97,-1.06l-1.98,-1.06l0,-8.27l0,-8.28l-1.25,-1.68l-1.25,-1.68l-9,-4.51l-9,-4.5l-3,0.11l-3,0.11l-15.39,7.7m18.14,15.36l-14.25,7.18l0,9.27l0,9.27l15,-7.51l15,-7.51l0,-9l0,-8.99l-0.75,0.06l-0.75,0.06l-14.25,7.17m178.48,-0.25l-3.76,0.94l-3.96,2.01l-3.96,2.02l-3.52,3.52l-3.52,3.52l-2.17,4.23l-2.17,4.22l-0.46,7.63l-0.45,7.62l1.78,5.37l1.78,5.36l5.6,5.6l5.6,5.6l5.36,1.78l5.37,1.78l7.62,-0.45l7.63,-0.46l4,-2.08l4,-2.08l4.2,-4.34l4.2,-4.33l2.25,-5l2.26,-5l-0.04,-7.5l-0.03,-7.5l-2.06,-4.62l-2.05,-4.63l-3.71,-4.09l-3.7,-4.1l-5.16,-2.48l-5.16,-2.49l-6,-0.5l-6,-0.49l-3.77,0.94m216,0l-3.76,0.94l-3.96,2.01l-3.96,2.02l-3.52,3.52l-3.52,3.52l-2.17,4.23l-2.17,4.22l-0.46,7.63l-0.45,7.62l1.78,5.37l1.78,5.36l5.6,5.6l5.6,5.6l5.36,1.78l5.37,1.78l7.62,-0.45l7.63,-0.46l4,-2.08l4,-2.08l4.2,-4.34l4.2,-4.33l2.25,-5l2.26,-5l-0.04,-7.5l-0.03,-7.5l-2.06,-4.62l-2.05,-4.63l-3.71,-4.09l-3.7,-4.1l-5.16,-2.48l-5.16,-2.49l-6,-0.5l-6,-0.49l-3.77,0.94m-157.14,2.61l-4.9,1.5l-5.76,5.76l-5.75,5.75l-1.59,5.35l-1.59,5.35l0,4.14l0,4.14l1.51,5.08l1.51,5.09l4.63,5.14l4.62,5.15l4.12,2.2l4.11,2.2l15.42,0l15.42,0l2.78,-7.5l2.78,-7.5l0.05,-0.75l0.05,-0.75l-14.03,0l-14.03,0l-3.3,-1.38l-3.3,-1.38l-2.17,-2.75l-2.17,-2.76l0,-4.29l0,-4.29l2.56,-3.04l2.57,-3.05l3.68,-1.03l3.69,-1.02l11,-0.01l11,0l2.75,-7.79l2.75,-7.79l0,-0.71l0,-0.71l-16.75,0.07l-16.75,0.07l-4.91,1.51m41.41,27.85l0,29.5l21.25,0l21.25,0l2.75,-7.79l2.75,-7.79l0,-0.71l0,-0.71l-15.5,0l-15.5,0l0,-2l0,-2l6.42,0l6.42,0l2.58,-7.75l2.58,-7.76l0,-0.74l0,-0.75l-9,0l-9,0l0,-2l0,-2l12.77,0l12.76,0l2.75,-7.75l2.74,-7.75l-0.01,-0.75l-0.01,-0.75l-24,0l-24,0l0,29.5m52,0l0,29.5l16.91,0l16.9,0l2.99,-8.25l2.98,-8.25l-11.39,-0.28l-11.39,-0.28l0,-20.97l0,-20.97l-8.5,0l-8.5,0l0,29.5m104.66,-21.75l-2.68,7.75l0.01,0.75l0.01,0.75l10.5,0l10.5,0l0,21l0,21l9,0l9,0l0,-21l0,-21l7.37,0l7.37,0l2.63,-7.41l2.63,-7.4l0,-1.1l0,-1.09l-26.83,0l-26.82,0l-2.69,7.75m-258.24,12.5l-3.54,3.25l-0.55,4.09l-0.55,4.08l1.66,3.21l1.66,3.21l3.2,1.95l3.2,1.95l2.8,0.01l2.8,0l2.86,-1.48l2.86,-1.48l2.09,-2.65l2.09,-2.66l0,-3.92l0,-3.91l-1.52,-2.93l-1.51,-2.94l-2.94,-1.51l-2.93,-1.52l-4.06,0l-4.07,0l-3.55,3.25m216,0l-3.54,3.25l-0.55,4.09l-0.55,4.08l1.66,3.21l1.66,3.21l3.2,1.95l3.2,1.95l2.8,0.01l2.8,0l2.86,-1.48l2.86,-1.48l2.09,-2.65l2.09,-2.66l0,-3.92l0,-3.91l-1.52,-2.93l-1.51,-2.94l-2.94,-1.51l-2.93,-1.52l-4.07,0l-4.06,0l-3.55,3.25m-438.42,12.69l-7.49,3.83l7.49,3.69l7.5,3.68l7.97,-3.7l7.96,-3.7l-7.46,-3.82l-7.47,-3.82l-0.5,0l-0.5,0l-7.5,3.84m-38,13.38l0,9.24l7.46,3.69l7.46,3.7l0.29,9.13l0.29,9.14l7.25,3.98l7.25,3.99l0,-18.54l0,-18.54l-10.25,-5.49l-10.25,-5.49l-4.75,-2.03l-4.75,-2.03l0,9.25m83.54,-5.64l-6.96,3.48l7.46,3.97l7.46,3.98l7.97,-3.91l7.98,-3.91l-7.58,-3.65l-7.58,-3.64l-0.89,0.1l-0.9,0.09l-6.96,3.49m30.84,15.36l-38.11,19.01l-14.38,-7.27l-14.38,-7.28l-0.76,-0.33l-0.75,-0.34l0,18.57l0,18.57l6.97,3.52l6.98,3.51l0.52,0l0.53,0l0,-9.08l0,-9.09l0.75,0.36l0.75,0.35l6.73,3.44l6.74,3.43l0.26,28.13l0.27,28.12l38.25,-18.94l38.25,-18.94l0,-37.39l0,-37.39l-0.25,0.01l-0.25,0.02l-38.12,19.01m347.77,16.98l-4.36,0.91l-4.26,2.5l-4.26,2.49l-3.28,3.74l-3.28,3.74l-2.1,4.55l-2.09,4.55l0.01,8l0.02,8l2.4,4.92l2.4,4.93l3.78,3.78l3.79,3.79l4.29,2.21l4.29,2.21l8.15,0.45l8.15,0.45l5.39,-2.47l5.4,-2.47l3.51,-3.08l3.51,-3.08l2.86,-5.25l2.85,-5.26l0.46,-7.18l0.47,-7.19l-1.71,-5.14l-1.71,-5.14l-4.89,-5.36l-4.9,-5.36l-4.9,-2.11l-4.91,-2.11l-5.36,-0.46l-5.37,-0.47l-4.35,0.91m-270.15,30.48l0,29.5l8.47,0l8.47,0l0.28,-13.92l0.28,-13.92l9.92,13.92l9.91,13.92l8.84,0l8.83,0l0,-29.5l0,-29.5l-8.97,0l-8.97,0l-0.28,13.42l-0.28,13.42l-9.5,-13.4l-9.5,-13.4l-8.75,-0.02l-8.75,-0.02l0,29.5m61,0.02l0,29.52l21.11,-0.27l21.1,-0.27l2.25,-6l2.25,-6l0.71,-2.25l0.71,-2.25l-15.56,0l-15.57,0l0,-2l0,-2l6.3,0l6.31,0l2.43,-7.25l2.44,-7.25l0.33,-1.25l0.34,-1.25l-9.08,0l-9.07,0l0,-1.97l0,-1.97l12.75,-0.28l12.75,-0.28l2.69,-7.5l2.69,-7.5l0.06,-0.75l0.06,-0.75l-24,0l-24,0l0,29.52m52.51,-28.53l-0.63,1.01l-2.44,7.18l-2.44,7.17l0,0.33l0,0.32l11,0l11,0l0,21l0,21l8.5,0l8.5,0l0,-20.96l0,-20.96l7.67,-0.29l7.67,-0.29l2.14,-6.43l2.14,-6.42l9.84,27.67l9.85,27.68l7.74,0l7.75,0l2.73,-7.5l2.74,-7.5l0.23,0l0.24,0l2.86,7.5l2.86,7.5l7.67,0l7.67,0l1.01,-2.75l1,-2.75l5.01,-14l5.01,-14l4.56,-12.75l4.56,-12.75l-8.86,0l-8.86,0l-5.78,15.5l-5.77,15.5l-0.59,0l-0.59,-0.01l-5.41,-14.74l-5.4,-14.75l-0.71,-0.81l-0.71,-0.82l-5.79,15.57l-5.8,15.56l-0.59,-0.01l-0.59,-0.01l-5.63,-15.24l-5.63,-15.24l-34.55,-0.26l-34.56,-0.27l-0.62,1.02m198.24,6.8l-2.75,7.79l0,0.71l0,0.71l19.07,0l19.06,0l1.94,1.03l1.93,1.04l0,1.77l0,1.76l-1.2,1.2l-1.2,1.2l-15.3,0l-15.3,0l0,17l0,17l8.5,0l8.5,0l0,-7.73l0,-7.72l7.77,7.72l7.77,7.73l10.73,0l10.73,0l0,-0.77l0,-0.78l-7.97,-7.92l-7.97,-7.92l3.72,-2.06l3.72,-2.06l2.25,-4.46l2.25,-4.45l0,-7.32l0,-7.32l-1.36,-3.27l-1.37,-3.26l-3.16,-2.67l-3.17,-2.66l-3.72,-1.04l-3.72,-1.03l-18.5,0l-18.5,-0.01l-2.75,7.79m63.25,21.71l0,29.5l8.5,0l8.5,0l0,-12.18l0,-12.17l9.11,12.17l9.11,12.18l9.89,0l9.89,0l0,-0.29l0,-0.29l-10.37,-14.38l-10.37,-14.39l8.68,-12.07l8.69,-12.08l1.8,-2.75l1.8,-2.75l-9.9,0l-9.91,0l-8.96,12.06l-8.96,12.05l-0.28,-12.05l-0.28,-12.06l-8.47,0l-8.47,0l0,29.5m-104.11,-11l-2.6,1.41l-1.55,2.37l-1.55,2.36l-0.2,2.43l-0.21,2.43l0.11,2.26l0.11,2.27l3.28,3.58l3.29,3.59l4.46,0.49l4.47,0.49l3.5,-2.37l3.5,-2.37l1.4,-4.04l1.41,-4.03l-0.71,-2.84l-0.72,-2.85l-3.34,-3.34l-3.34,-3.34l-4.35,0.04l-4.35,0.04l-2.61,1.42m-447.89,13.8l0,9.3l4.75,2.33l4.75,2.33l3.25,1.39l3.25,1.38l0,-9.3l0,-9.29l-7.52,-3.72l-7.51,-3.72l-0.49,0l-0.48,0l0,9.3m37.75,2.26l-6.75,3.47l0,18.48l0,18.49l0.53,0l0.52,0l6.98,-3.51l6.97,-3.52l0,-18.48l0,-18.49l-0.75,0.05l-0.75,0.05l-6.75,3.46" fill="#8cccfc" fill-rule="evenodd" id="svg_2"/>
 </g>
</svg>