<?xml version="1.0"?>
<svg width="1050" height="375" xmlns="http://www.w3.org/2000/svg" xmlns:svg="http://www.w3.org/2000/svg" version="1.1">

 <g class="layer">
  <title>Layer 1</title>
  <path d="m144.87,54.95l-23.87,11.94l-2.88,3.55l-2.88,3.57l0,6.81l0,6.79l-39.94,19.87l-39.92,19.85l-1.92,3.8l-1.92,3.8l0,71.35l0,71.35l1.94,3.88l1.94,3.88l37.19,18.91l37.21,18.91l5.09,0.09l5.09,0.09l9.15,-4.62l9.17,-4.62l11.77,5.58l11.79,5.6l6.55,-2.59l6.55,-2.59l57.39,-29.02l57.39,-29l1.92,-3.88l1.91,-3.88l0.03,-59.23l0.02,-59.22l-1.46,-3.83l-1.46,-3.85l-4.75,-2.79l-4.75,-2.81l0,-12.86l0,-12.84l-2.75,-2.75l-2.73,-2.73l-12.63,-6.58l-12.63,-6.56l-4.84,0l-4.82,0l-12.41,6.23l-12.42,6.25l-3.06,-1.64l-3.07,-1.64l0,-12.83l0,-12.84l-1.94,-2.61l-1.94,-2.61l-13.96,-6.99l-13.96,-6.98l-4.65,0.17l-4.65,0.17l-23.87,11.94m28.13,23.82l-22.1,11.14l0,14.38l0,14.38l23.26,-11.65l23.26,-11.65l0,-13.96l0,-13.94l-1.16,0.09l-1.16,0.09l-22.1,11.12m276.82,-0.39l-5.83,1.46l-6.14,3.12l-6.14,3.13l-5.46,5.46l-5.46,5.46l-3.37,6.56l-3.37,6.55l-0.71,11.83l-0.7,11.82l2.76,8.33l2.76,8.31l8.69,8.69l8.69,8.69l8.31,2.76l8.33,2.76l11.82,-0.7l11.83,-0.71l6.2,-3.23l6.2,-3.23l6.51,-6.73l6.51,-6.72l3.49,-7.75l3.51,-7.75l-0.06,-11.63l-0.05,-11.63l-3.2,-7.17l-3.18,-7.18l-5.75,-6.34l-5.74,-6.36l-8,-3.85l-8,-3.86l-9.31,-0.78l-9.31,-0.76l-5.85,1.46m335.01,0l-5.83,1.46l-6.14,3.12l-6.14,3.13l-5.46,5.46l-5.46,5.46l-3.37,6.56l-3.37,6.55l-0.71,11.83l-0.7,11.82l2.76,8.33l2.76,8.31l8.69,8.69l8.69,8.69l8.31,2.76l8.33,2.76l11.82,-0.7l11.83,-0.71l6.2,-3.23l6.2,-3.23l6.51,-6.73l6.51,-6.72l3.49,-7.75l3.51,-7.75l-0.06,-11.63l-0.05,-11.63l-3.2,-7.17l-3.18,-7.18l-5.75,-6.34l-5.74,-6.36l-8,-3.85l-8,-3.86l-9.31,-0.78l-9.31,-0.76l-5.85,1.46m-243.72,4.05l-7.6,2.33l-8.93,8.93l-8.92,8.92l-2.47,8.3l-2.47,8.3l0,6.42l0,6.42l2.34,7.88l2.34,7.89l7.18,7.97l7.17,7.99l6.39,3.41l6.37,3.41l23.92,0l23.92,0l4.31,-11.63l4.31,-11.63l0.08,-1.16l0.08,-1.16l-21.76,0l-21.76,0l-5.12,-2.14l-5.12,-2.14l-3.37,-4.27l-3.37,-4.28l0,-6.65l0,-6.65l3.97,-4.72l3.99,-4.73l5.71,-1.6l5.72,-1.58l17.06,-0.02l17.06,0l4.27,-12.08l4.27,-12.08l0,-1.1l0,-1.1l-25.98,0.11l-25.98,0.11l-7.62,2.34m64.23,43.2l0,45.75l32.96,0l32.96,0l4.27,-12.08l4.27,-12.08l0,-1.1l0,-1.1l-24.04,0l-24.04,0l0,-3.1l0,-3.1l9.96,0l9.96,0l4,-12.02l4,-12.04l0,-1.15l0,-1.16l-13.96,0l-13.96,0l0,-3.1l0,-3.1l19.81,0l19.79,0l4.27,-12.02l4.25,-12.02l-0.02,-1.16l-0.02,-1.16l-37.22,0l-37.22,0l0,45.75m80.65,0l0,45.75l26.23,0l26.21,0l4.64,-12.8l4.62,-12.8l-17.67,-0.43l-17.67,-0.43l0,-32.52l0,-32.52l-13.18,0l-13.18,0l0,45.75m162.33,-33.73l-4.16,12.02l0.02,1.16l0.02,1.16l16.29,0l16.29,0l0,32.57l0,32.57l13.96,0l13.96,0l0,-32.57l0,-32.57l11.43,0l11.43,0l4.08,-11.49l4.08,-11.48l0,-1.71l0,-1.69l-41.61,0l-41.6,0l-4.17,12.02m-400.53,19.39l-5.49,5.04l-0.85,6.34l-0.85,6.33l2.57,4.98l2.57,4.98l4.96,3.02l4.96,3.02l4.34,0.02l4.34,0l4.44,-2.3l4.44,-2.3l3.24,-4.11l3.24,-4.13l0,-6.08l0,-6.06l-2.36,-4.54l-2.34,-4.56l-4.56,-2.34l-4.54,-2.36l-6.3,0l-6.31,0l-5.51,5.04m335.01,0l-5.49,5.04l-0.85,6.34l-0.85,6.33l2.57,4.98l2.57,4.98l4.96,3.02l4.96,3.02l4.34,0.02l4.34,0l4.44,-2.3l4.44,-2.3l3.24,-4.11l3.24,-4.13l0,-6.08l0,-6.06l-2.36,-4.54l-2.34,-4.56l-4.56,-2.34l-4.54,-2.36l-6.31,0l-6.3,0l-5.51,5.04m-679.99,19.68l-11.62,5.94l11.62,5.72l11.63,5.71l12.36,-5.74l12.35,-5.74l-11.57,-5.92l-11.59,-5.92l-0.78,0l-0.78,0l-11.63,5.96m-58.94,20.75l0,14.33l11.57,5.72l11.57,5.74l0.45,14.16l0.45,14.18l11.24,6.17l11.24,6.19l0,-28.76l0,-28.76l-15.9,-8.51l-15.9,-8.51l-7.37,-3.15l-7.37,-3.15l0,14.35m129.57,-8.75l-10.79,5.4l11.57,6.16l11.57,6.17l12.36,-6.06l12.38,-6.06l-11.76,-5.66l-11.76,-5.65l-1.38,0.16l-1.4,0.14l-10.79,5.41m47.83,23.82l-59.11,29.48l-22.3,-11.28l-22.3,-11.29l-1.18,-0.51l-1.16,-0.53l0,28.8l0,28.8l10.81,5.46l10.83,5.44l0.81,0l0.82,0l0,-14.08l0,-14.1l1.16,0.56l1.16,0.54l10.44,5.34l10.45,5.32l0.4,43.63l0.42,43.61l59.33,-29.38l59.33,-29.38l0,-57.99l0,-57.99l-0.39,0.02l-0.39,0.03l-59.12,29.48m539.39,26.34l-6.76,1.41l-6.61,3.88l-6.61,3.86l-5.09,5.8l-5.09,5.8l-3.26,7.06l-3.24,7.06l0.02,12.41l0.03,12.41l3.72,7.63l3.72,7.65l5.86,5.86l5.88,5.88l6.65,3.43l6.65,3.43l12.64,0.7l12.64,0.7l8.36,-3.83l8.38,-3.83l5.44,-4.78l5.44,-4.78l4.44,-8.14l4.42,-8.16l0.71,-11.14l0.73,-11.15l-2.65,-7.97l-2.65,-7.97l-7.58,-8.31l-7.6,-8.31l-7.6,-3.27l-7.62,-3.27l-8.31,-0.71l-8.33,-0.73l-6.75,1.41m-419,47.27l0,45.75l13.14,0l13.14,0l0.43,-21.59l0.43,-21.59l15.39,21.59l15.37,21.59l13.71,0l13.7,0l0,-45.75l0,-45.75l-13.91,0l-13.91,0l-0.43,20.81l-0.43,20.81l-14.73,-20.78l-14.73,-20.78l-13.57,-0.03l-13.57,-0.03l0,45.75m94.61,0.03l0,45.79l32.74,-0.42l32.73,-0.42l3.49,-9.31l3.49,-9.31l1.1,-3.49l1.1,-3.49l-24.13,0l-24.15,0l0,-3.1l0,-3.1l9.77,0l9.79,0l3.77,-11.24l3.78,-11.24l0.51,-1.94l0.53,-1.94l-14.08,0l-14.07,0l0,-3.06l0,-3.06l19.78,-0.43l19.78,-0.43l4.17,-11.63l4.17,-11.63l0.09,-1.16l0.09,-1.16l-37.22,0l-37.22,0l0,45.79m81.44,-44.25l-0.98,1.57l-3.78,11.14l-3.78,11.12l0,0.51l0,0.5l17.06,0l17.06,0l0,32.57l0,32.57l13.18,0l13.18,0l0,-32.51l0,-32.51l11.9,-0.45l11.9,-0.45l3.32,-9.97l3.32,-9.96l15.26,42.92l15.28,42.93l12,0l12.02,0l4.23,-11.63l4.25,-11.63l0.36,0l0.37,0l4.44,11.63l4.44,11.63l11.9,0l11.9,0l1.57,-4.27l1.55,-4.27l7.77,-21.71l7.77,-21.71l7.07,-19.78l7.07,-19.78l-13.74,0l-13.74,0l-8.96,24.04l-8.95,24.04l-0.92,0l-0.92,-0.02l-8.39,-22.86l-8.38,-22.88l-1.1,-1.26l-1.1,-1.27l-8.98,24.15l-9,24.13l-0.92,-0.02l-0.92,-0.02l-8.73,-23.64l-8.73,-23.64l-53.59,-0.4l-53.6,-0.42l-0.96,1.58m307.47,10.55l-4.27,12.08l0,1.1l0,1.1l29.58,0l29.56,0l3.01,1.6l2.99,1.61l0,2.75l0,2.73l-1.86,1.86l-1.86,1.86l-23.73,0l-23.73,0l0,26.37l0,26.37l13.18,0l13.18,0l0,-11.99l0,-11.97l12.05,11.97l12.05,11.99l16.64,0l16.64,0l0,-1.19l0,-1.21l-12.36,-12.28l-12.36,-12.28l5.77,-3.2l5.77,-3.2l3.49,-6.92l3.49,-6.9l0,-11.35l0,-11.35l-2.11,-5.07l-2.12,-5.06l-4.9,-4.14l-4.92,-4.13l-5.77,-1.61l-5.77,-1.6l-28.69,0l-28.69,-0.02l-4.27,12.08m98.1,33.67l0,45.75l13.18,0l13.18,0l0,-18.89l0,-18.88l14.13,18.88l14.13,18.89l15.34,0l15.34,0l0,-0.45l0,-0.45l-16.08,-22.3l-16.08,-22.32l13.46,-18.72l13.48,-18.74l2.79,-4.27l2.79,-4.27l-15.35,0l-15.37,0l-13.9,18.7l-13.9,18.69l-0.43,-18.69l-0.43,-18.7l-13.14,0l-13.14,0l0,45.75m-161.47,-17.06l-4.03,2.19l-2.4,3.68l-2.4,3.66l-0.31,3.77l-0.33,3.77l0.17,3.51l0.17,3.52l5.09,5.55l5.1,5.57l6.92,0.76l6.93,0.76l5.43,-3.68l5.43,-3.68l2.17,-6.27l2.19,-6.25l-1.1,-4.4l-1.12,-4.42l-5.18,-5.18l-5.18,-5.18l-6.75,0.06l-6.75,0.06l-4.05,2.2m-694.67,21.4l0,14.42l7.37,3.61l7.37,3.61l5.04,2.16l5.04,2.14l0,-14.42l0,-14.41l-11.66,-5.77l-11.65,-5.77l-0.76,0l-0.74,0l0,14.42m58.55,3.51l-10.47,5.38l0,28.66l0,28.68l0.82,0l0.81,0l10.83,-5.44l10.81,-5.46l0,-28.66l0,-28.68l-1.16,0.08l-1.16,0.08l-10.47,5.37" fill="#8cccfc" fill-rule="evenodd" id="svg_2"/>
 </g>
</svg>